<?xml version="1.0" encoding="utf-8" ?>
<svg xmlns="http://www.w3.org/2000/svg" xmlns:cc="http://creativecommons.org/ns#" xmlns:dc="http://purl.org/dc/elements/1.1/" xmlns:ev="http://www.w3.org/2001/xml-events" xmlns:inkscape="http://www.inkscape.org/namespaces/inkscape" xmlns:rdf="http://www.w3.org/1999/02/22-rdf-syntax-ns#" xmlns:sodipodi="http://sodipodi.sourceforge.net/DTD/sodipodi-0.dtd" xmlns:xlink="http://www.w3.org/1999/xlink" baseProfile="tiny" height="29.7cm" version="1.2" viewBox="0 0 793.7007874015749 1122.5196850393702" width="21.0cm">
  <metadata>
    <rdf:RDF>
      <cc:Work>
        <dc:format>image/svg+xml</dc:format>
        <dc:source>Generated with vsketch</dc:source>
        <dc:date>2021-04-09T10:46:06.921209</dc:date>
      </cc:Work>
    </rdf:RDF>
  </metadata>
  <defs/>
  <g fill="none" id="layer1" inkscape:groupmode="layer" inkscape:label="1" stroke="#00f" style="display:inline">
    <polygon points="375.982,255.6703 378.1411,255.1205 379.9235,255.6703 381.2259,257.0055 708.5426,823.9347 709.0384,826.1069 708.6327,827.5487 707.6989,828.7197 706.3835,829.436 705.2694,829.604 49.522,829.436 48.2066,828.7197 47.2728,827.5487 46.8671,826.1069 47.0534,824.6207 57.5915,806.2181 374.6796,257.0055"/>
    <polygon points="374.2704,280.3914 377.9528,286.7693 381.6351,280.3914"/>
    <polygon points="391.8637,298.1079 364.0418,298.1079 370.9973,310.1551 377.9528,322.2024"/>
    <polygon points="394.7277,315.8244 398.41,322.2024 402.0924,315.8244"/>
    <polygon points="398.41,321.0685 398.1869,320.6821 400.6642,316.3914 401.1104,316.3914"/>
    <polygon points="398.41,322.2024 397.5323,320.6821 400.3369,315.8244 402.0924,315.8244"/>
    <polyline points="410.0298,335.2417 390.4355,335.2417 389.7809,336.3756 409.3752,336.3756 408.7205,337.5095 389.1263,337.5095 388.4716,338.6433 408.0659,338.6433 407.4113,339.7772 387.817,339.7772 387.1624,340.911 406.7566,340.911 406.102,342.0449 386.5077,342.0449 385.8531,343.1788 405.4474,343.1788 404.7927,344.3126 385.1985,344.3126 384.5438,345.4465 404.1381,345.4465 403.4835,346.5803 383.8892,346.5803 383.2346,347.7142 402.8288,347.7142 402.1742,348.848 382.5799,348.848 381.9253,349.9819 401.5196,349.9819 400.8649,351.1158 381.2707,351.1158 380.616,352.2496 400.2103,352.2496 399.5557,353.3835 379.9614,353.3835 379.3068,354.5173 398.901,354.5173 398.2464,355.6512 378.6521,355.6512 377.9975,356.7851 397.5918,356.7851 396.9371,357.9189 377.3429,357.9189 376.6882,359.0528 396.2825,359.0528 395.6279,360.1866 376.0336,360.1866 375.379,361.3205 394.9732,361.3205 394.3186,362.4543 374.7243,362.4543 374.0697,363.5882 393.664,363.5882 393.0093,364.7221 373.4151,364.7221 372.7604,365.8559 392.3547,365.8559 391.7001,366.9898 372.1058,366.9898 371.4512,368.1236 391.0454,368.1236 390.3908,369.2575 370.7965,369.2575 370.1419,370.3914 389.7362,370.3914 389.0815,371.5252 369.4873,371.5252 368.8326,372.6591 388.4269,372.6591 387.7723,373.7929 368.178,373.7929 368.7879,374.9268 387.1176,374.9268 386.463,376.0606 369.4425,376.0606 370.0972,377.1945 385.8084,377.1945 385.1537,378.3284 370.7518,378.3284 371.4064,379.4622 384.4991,379.4622 383.8445,380.5961 372.0611,380.5961 372.7157,381.7299 383.1898,381.7299 382.5352,382.8638 373.3703,382.8638 374.025,383.9977 381.8806,383.9977 381.2259,385.1315 374.6796,385.1315 375.3342,386.2654 380.5713,386.2654 379.9167,387.3992 375.9889,387.3992 376.6435,388.5331 379.262,388.5331 378.6074,389.6669 377.2981,389.6669"/>
    <polygon points="377.9528,393.0685 366.8464,373.8317 390.1082,333.541 412.321,333.541"/>
    <polygon points="361.1778,386.6906 353.8132,386.6906 357.4955,393.0685"/>
    <polygon points="357.2724,391.5482 359.7496,387.2575 360.1958,387.2575 357.4955,391.9347"/>
    <polygon points="357.4955,393.0685 356.6177,391.5482 359.4223,386.6906 361.1778,386.6906"/>
    <polygon points="337.0382,393.0685 350.9491,368.974 323.1272,368.974 330.0827,381.0213"/>
    <polygon points="320.2632,386.6906 312.8986,386.6906 316.5809,393.0685"/>
    <polygon points="333.3559,351.2575 337.0382,357.6354 340.7205,351.2575"/>
    <polygon points="350.54,345.5882 377.9528,393.0685 412.321,333.541 343.5845,333.541"/>
    <polygon points="357.4955,322.2024 361.1778,315.8244 353.8132,315.8244"/>
    <polygon points="411.3391,334.1079 377.9528,391.9347 367.501,373.8317 390.4355,334.1079"/>
    <polygon points="422.5497,351.2575 418.8673,357.6354 415.185,351.2575 418.8673,357.6354 422.5497,351.2575 415.185,351.2575"/>
    <polyline points="420.5448,352.4622 417.1898,352.4622 417.8445,353.5961 419.8902,353.5961 419.2356,354.7299 418.4991,354.7299"/>
    <polygon points="418.8673,356.5016 416.167,351.8244 421.5677,351.8244"/>
    <polyline points="430.5689,370.5331 407.1658,370.5331 407.8204,371.6669 429.9143,371.6669 429.2596,372.8008 408.475,372.8008 409.1297,373.9347 428.605,373.9347 427.9504,375.0685 409.7843,375.0685 410.4389,376.2024 427.2957,376.2024 426.6411,377.3362 411.0936,377.3362 411.7482,378.4701 425.9865,378.4701 425.3318,379.604 412.4028,379.604 413.0575,380.7378 424.6772,380.7378 424.0226,381.8717 413.7121,381.8717 414.3667,383.0055 423.3679,383.0055 422.7133,384.1394 415.0214,384.1394 415.676,385.2732 422.0587,385.2732 421.404,386.4071 416.3306,386.4071 416.9853,387.541 420.7494,387.541 420.0948,388.6748 417.6399,388.6748 418.2945,389.8087 419.4401,389.8087"/>
    <polygon points="418.8673,393.0685 404.9564,368.974 432.7783,368.974 404.9564,368.974 418.8673,393.0685 432.7783,368.974"/>
    <polyline points="400.0875,387.8953 396.7326,387.8953 397.3872,389.0291 399.4329,389.0291 398.7783,390.163 398.0418,390.163"/>
    <polygon points="398.41,391.9347 395.7097,387.2575 401.1104,387.2575"/>
    <polygon points="398.41,393.0685 402.0924,386.6906 394.7277,386.6906 402.0924,386.6906 398.41,393.0685 394.7277,386.6906"/>
    <polyline points="438.9564,390.163 439.6929,390.163 440.3475,389.0291 438.3018,389.0291 437.6471,387.8953 441.0021,387.8953"/>
    <polygon points="442.025,387.2575 439.3246,391.9347 436.6243,387.2575"/>
    <polygon points="443.0069,386.6906 439.3246,393.0685 435.6423,386.6906 439.3246,393.0685 443.0069,386.6906 435.6423,386.6906"/>
    <polygon points="453.2356,404.4071 302.6699,404.4071 309.6254,416.4543 377.9528,534.8008"/>
    <polyline points="451.108,405.8244 349.6846,405.8244 349.03,406.9583 450.4534,406.9583 449.7988,408.0921 348.3753,408.0921 347.7207,409.226 449.1441,409.226 448.4895,410.3599 347.0661,410.3599 346.4114,411.4937 447.8349,411.4937 447.1802,412.6276 345.7568,412.6276 345.1022,413.7614 446.5256,413.7614 445.871,414.8953 344.4475,414.8953 343.7929,416.0291 445.2163,416.0291 444.5617,417.163 343.1383,417.163 342.4836,418.2969 443.9071,418.2969 443.2524,419.4307 341.829,419.4307 341.1744,420.5646 442.5978,420.5646 441.9432,421.6984 340.5197,421.6984 339.8651,422.8323 441.2885,422.8323 440.6339,423.9662 339.2105,423.9662 338.5558,425.1 439.9793,425.1 439.3246,426.2339 337.9012,426.2339 337.2466,427.3677 438.67,427.3677 438.0154,428.5016 336.5919,428.5016 335.9373,429.6354 437.3607,429.6354 436.7061,430.7693 335.2827,430.7693 334.628,431.9032 436.0515,431.9032 435.3968,433.037 333.9734,433.037 333.3188,434.1709 434.7422,434.1709 434.0876,435.3047 332.6641,435.3047 332.0095,436.4386 433.4329,436.4386 432.7783,437.5725 331.3549,437.5725 330.7002,438.7063 432.1237,438.7063 431.469,439.8402 330.0456,439.8402 329.391,440.974 430.8144,440.974"/>
    <polygon points="445.871,439.8402 473.6929,439.8402 472.3291,442.2024 447.2348,442.2024"/>
    <line x1="447.8621" x2="471.7017" y1="441.0213" y2="441.0213"/>
    <polygon points="473.6929,439.8402 445.871,439.8402 459.7819,463.9347"/>
    <polygon points="459.7819,427.3677 457.0816,422.6906 462.4823,422.6906"/>
    <polyline points="459.4137,425.5961 460.1502,425.5961 460.8048,424.4622 458.7591,424.4622 458.1044,423.3284 461.4594,423.3284"/>
    <polygon points="456.0996,422.1236 459.7819,428.5016 463.4642,422.1236 456.0996,422.1236 463.4642,422.1236 459.7819,428.5016"/>
    <polygon points="447.5621,441.6354 446.8529,440.4071 472.7109,440.4071 472.0018,441.6354"/>
    <polygon points="435.6423,457.5567 439.3246,463.9347 443.0069,457.5567"/>
    <polygon points="471.9374,475.2732 494.1502,475.2732 459.7819,534.8008 448.6755,515.564"/>
    <polygon points="479.3615,462.4144 482.166,457.5567 483.9215,457.5567 480.2392,463.9347"/>
    <polygon points="482.9396,458.1236 480.2392,462.8008 480.0161,462.4144 482.4934,458.1236"/>
    <polygon points="483.9215,457.5567 476.5569,457.5567 480.2392,463.9347"/>
    <polygon points="494.1502,475.2732 425.4137,475.2732 459.7819,534.8008"/>
    <polyline points="491.859,476.974 472.2647,476.974 471.6101,478.1079 491.2043,478.1079 490.5497,479.2417 470.9554,479.2417 470.3008,480.3756 489.8951,480.3756 489.2404,481.5095 469.6462,481.5095 468.9915,482.6433 488.5858,482.6433 487.9312,483.7772 468.3369,483.7772 467.6823,484.911 487.2765,484.911 486.6219,486.0449 467.0276,486.0449 466.373,487.1788 485.9673,487.1788 485.3126,488.3126 465.7184,488.3126 465.0637,489.4465 484.658,489.4465 484.0034,490.5803 464.4091,490.5803 463.7545,491.7142 483.3487,491.7142 482.6941,492.848 463.0998,492.848 462.4452,493.9819 482.0395,493.9819 481.3848,495.1158 461.7906,495.1158 461.1359,496.2496 480.7302,496.2496 480.0756,497.3835 460.4813,497.3835 459.8267,498.5173 479.4209,498.5173 478.7663,499.6512 459.172,499.6512 458.5174,500.7851 478.1117,500.7851 477.457,501.9189 457.8628,501.9189 457.2081,503.0528 476.8024,503.0528 476.1478,504.1866 456.5535,504.1866 455.8989,505.3205 475.4931,505.3205 474.8385,506.4543 455.2442,506.4543 454.5896,507.5882 474.1839,507.5882 473.5292,508.7221 453.935,508.7221 453.2803,509.8559 472.8746,509.8559 472.22,510.9898 452.6257,510.9898 451.9711,512.1236 471.5653,512.1236 470.9107,513.2575 451.3164,513.2575 450.6618,514.3914 470.2561,514.3914 469.6014,515.5252 450.0072,515.5252 450.6171,516.6591 468.9468,516.6591 468.2922,517.7929 451.2717,517.7929 451.9263,518.9268 467.6375,518.9268 466.9829,520.0606 452.581,520.0606 453.2356,521.1945 466.3283,521.1945 465.6736,522.3284 453.8902,522.3284 454.5449,523.4622 465.019,523.4622 464.3644,524.5961 455.1995,524.5961 455.8541,525.7299 463.7097,525.7299 463.0551,526.8638 456.5088,526.8638 457.1634,527.9977 462.4005,527.9977 461.7458,529.1315 457.818,529.1315 458.4727,530.2654 461.0912,530.2654 460.4366,531.3992 459.1273,531.3992"/>
    <polygon points="459.7819,533.6669 449.3302,515.564 472.2647,475.8402 493.1682,475.8402"/>
    <polygon points="443.0069,528.4228 439.3246,534.8008 438.4469,533.2805 441.2515,528.4228"/>
    <polygon points="443.0069,528.4228 435.6423,528.4228 439.3246,534.8008"/>
    <polygon points="441.5788,528.9898 442.025,528.9898 439.3246,533.6669 439.1015,533.2805"/>
    <polygon points="432.7783,510.7063 404.9564,510.7063 418.8673,534.8008"/>
    <polygon points="415.185,492.9898 418.8673,499.3677 422.5497,492.9898"/>
    <polygon points="385.2852,520.9668 377.9528,533.6669 326.5864,444.6978 349.521,404.974 452.2536,404.974 431.0872,441.6354 339.4832,441.6354"/>
    <polyline points="378.4437,531.6827 377.4618,531.6827 376.8071,530.5488 379.0984,530.5488 379.753,529.415 376.1525,529.415 375.4979,528.2811 380.4076,528.2811 381.0623,527.1473 374.8432,527.1473 374.1886,526.0134 381.7169,526.0134 382.3715,524.8795 373.534,524.8795 372.8793,523.7457 383.0262,523.7457 383.6808,522.6118 372.2247,522.6118 371.5701,521.478 384.3354,521.478 384.2711,520.3441 370.9154,520.3441 370.2608,519.2102 383.6164,519.2102 382.9618,518.0764 369.6062,518.0764 368.9515,516.9425 382.3072,516.9425 381.6525,515.8087 368.2969,515.8087 367.6423,514.6748 380.9979,514.6748 380.3433,513.541 366.9876,513.541 366.333,512.4071 379.6886,512.4071 379.034,511.2732 365.6784,511.2732 365.0237,510.1394 378.3794,510.1394 377.7247,509.0055 364.3691,509.0055 363.7145,507.8717 377.0701,507.8717 376.4155,506.7378 363.0598,506.7378 362.4052,505.604 375.7608,505.604 375.1062,504.4701 361.7506,504.4701 361.0959,503.3362 374.4516,503.3362 373.7969,502.2024 360.4413,502.2024 359.7867,501.0685 373.1423,501.0685 372.4877,499.9347 359.132,499.9347 358.4774,498.8008 371.833,498.8008 371.1784,497.6669 357.8228,497.6669 357.1681,496.5331 370.5238,496.5331 369.8691,495.3992 356.5135,495.3992 355.8589,494.2654 369.2145,494.2654 368.5599,493.1315 355.2042,493.1315 354.5496,491.9977 367.9052,491.9977 367.2506,490.8638 353.895,490.8638 353.2403,489.7299 366.596,489.7299 365.9413,488.5961 352.5857,488.5961 351.9311,487.4622 365.2867,487.4622 364.6321,486.3284 351.2764,486.3284 350.6218,485.1945 363.9774,485.1945 363.3228,484.0606 349.9672,484.0606 349.3125,482.9268 362.6682,482.9268 362.0135,481.7929 348.6579,481.7929 348.0033,480.6591 361.3589,480.6591 360.7043,479.5252 347.3486,479.5252 346.694,478.3914 360.0496,478.3914 359.395,477.2575 346.0394,477.2575 345.3847,476.1236 358.7404,476.1236 358.0857,474.9898 344.7301,474.9898 344.0755,473.8559 357.4311,473.8559 356.7765,472.7221 343.4208,472.7221 342.7662,471.5882 356.1218,471.5882 355.4672,470.4543 342.1116,470.4543 341.4569,469.3205 354.8126,469.3205 354.1579,468.1866 340.8023,468.1866 340.1477,467.0528 353.5033,467.0528 352.8487,465.9189 339.493,465.9189 338.8384,464.7851 352.194,464.7851 351.5394,463.6512 338.1838,463.6512 337.5291,462.5173 350.8848,462.5173 350.2301,461.3835 336.8745,461.3835 336.2199,460.2496 349.5755,460.2496 348.9209,459.1158 335.5652,459.1158 334.9106,457.9819 348.2662,457.9819 347.6116,456.848 334.256,456.848 333.6013,455.7142 346.957,455.7142 346.3023,454.5803 332.9467,454.5803 332.2921,453.4465 345.6477,453.4465 344.9931,452.3126 331.6374,452.3126 330.9828,451.1788 344.3384,451.1788 343.6838,450.0449 330.3282,450.0449 329.6735,448.911 343.0292,448.911 342.3745,447.7772 329.0189,447.7772 328.3643,446.6433 341.7199,446.6433 341.0653,445.5095 327.7096,445.5095 327.4271,444.3756 340.4106,444.3756 339.756,443.2417 328.0817,443.2417 328.7363,442.1079 339.1014,442.1079"/>
    <polygon points="325.9318,444.6978 349.1936,404.4071 453.2356,404.4071 431.4145,442.2024 340.4652,442.2024 385.9398,520.9668 377.9528,534.8008"/>
    <polygon points="318.835,458.1236 319.2812,458.1236 316.5809,462.8008 316.3578,462.4144"/>
    <polygon points="315.7031,462.4144 318.5077,457.5567 320.2632,457.5567 316.5809,463.9347"/>
    <polygon points="312.8986,457.5567 316.5809,463.9347 320.2632,457.5567"/>
    <polygon points="308.2791,475.2732 330.4918,475.2732 296.1236,534.8008 285.0172,515.564"/>
    <polyline points="328.2006,476.974 308.6064,476.974 307.9517,478.1079 327.546,478.1079 326.8914,479.2417 307.2971,479.2417 306.6425,480.3756 326.2367,480.3756 325.5821,481.5095 305.9878,481.5095 305.3332,482.6433 324.9275,482.6433 324.2728,483.7772 304.6786,483.7772 304.0239,484.911 323.6182,484.911 322.9636,486.0449 303.3693,486.0449 302.7147,487.1788 322.3089,487.1788 321.6543,488.3126 302.06,488.3126 301.4054,489.4465 320.9997,489.4465 320.345,490.5803 300.7508,490.5803 300.0961,491.7142 319.6904,491.7142 319.0358,492.848 299.4415,492.848 298.7869,493.9819 318.3811,493.9819 317.7265,495.1158 298.1322,495.1158 297.4776,496.2496 317.0719,496.2496 316.4172,497.3835 296.823,497.3835 296.1683,498.5173 315.7626,498.5173 315.108,499.6512 295.5137,499.6512 294.8591,500.7851 314.4533,500.7851 313.7987,501.9189 294.2044,501.9189 293.5498,503.0528 313.1441,503.0528 312.4894,504.1866 292.8952,504.1866 292.2405,505.3205 311.8348,505.3205 311.1802,506.4543 291.5859,506.4543 290.9313,507.5882 310.5255,507.5882 309.8709,508.7221 290.2766,508.7221 289.622,509.8559 309.2163,509.8559 308.5616,510.9898 288.9674,510.9898 288.3127,512.1236 307.907,512.1236 307.2524,513.2575 287.6581,513.2575 287.0035,514.3914 306.5977,514.3914 305.9431,515.5252 286.3488,515.5252 286.9587,516.6591 305.2885,516.6591 304.6338,517.7929 287.6134,517.7929 288.268,518.9268 303.9792,518.9268 303.3246,520.0606 288.9226,520.0606 289.5773,521.1945 302.6699,521.1945 302.0153,522.3284 290.2319,522.3284 290.8865,523.4622 301.3607,523.4622 300.706,524.5961 291.5412,524.5961 292.1958,525.7299 300.0514,525.7299 299.3968,526.8638 292.8504,526.8638 293.5051,527.9977 298.7421,527.9977 298.0875,529.1315 294.1597,529.1315 294.8143,530.2654 297.4329,530.2654 296.7782,531.3992 295.469,531.3992"/>
    <polygon points="279.3486,528.4228 271.984,528.4228 275.6663,534.8008"/>
    <polygon points="275.6663,533.6669 275.4432,533.2805 277.9204,528.9898 278.3667,528.9898"/>
    <polygon points="275.6663,534.8008 274.7885,533.2805 277.5931,528.4228 279.3486,528.4228"/>
    <polyline points="267.8554,547.5567 399.9823,547.5567 400.6369,548.6906 267.2008,548.6906 266.5462,549.8244 401.2915,549.8244 401.9462,550.9583 265.8915,550.9583 265.2369,552.0921 402.6008,552.0921 403.2554,553.226 264.5823,553.226 263.9276,554.3599 403.9101,554.3599 404.5647,555.4937 263.273,555.4937 262.6184,556.6276 405.2193,556.6276 405.874,557.7614 261.9637,557.7614 261.3091,558.8953 406.5286,558.8953 407.1832,560.0291 260.6545,560.0291 259.9998,561.163 407.8379,561.163 408.4925,562.2969 259.3452,562.2969 258.6906,563.4307 409.1471,563.4307 409.8018,564.5646 258.0359,564.5646 257.3813,565.6984 410.4564,565.6984 411.111,566.8323 256.7267,566.8323 256.072,567.9662 411.7657,567.9662 412.4203,569.1 255.4174,569.1 254.7628,570.2339 413.0749,570.2339 413.7296,571.3677 254.1081,571.3677 253.4535,572.5016 414.3842,572.5016 415.0388,573.6354 252.7989,573.6354 252.1442,574.7693 517.226,574.7693 517.8806,573.6354 416.4572,573.6354 417.1119,572.5016 518.5353,572.5016 519.1899,571.3677 417.7665,571.3677 418.4211,570.2339 519.8445,570.2339 520.4992,569.1 419.0758,569.1 419.7304,567.9662 521.1538,567.9662 521.8084,566.8323 420.385,566.8323 421.0397,565.6984 522.4631,565.6984 523.1177,564.5646 421.6943,564.5646 422.3489,563.4307 523.7723,563.4307 524.427,562.2969 423.0036,562.2969 423.6582,561.163 525.0816,561.163 525.7362,560.0291 424.3128,560.0291 424.9675,558.8953 526.3909,558.8953 527.0455,557.7614 425.6221,557.7614 426.2767,556.6276 527.7001,556.6276 528.3548,555.4937 426.9314,555.4937 427.586,554.3599 529.0094,554.3599 529.664,553.226 428.2406,553.226 428.8953,552.0921 530.3187,552.0921 530.9733,550.9583 429.5499,550.9583 430.2045,549.8244 531.6279,549.8244 532.2826,548.6906 430.8592,548.6906 431.5138,547.5567 532.9372,547.5567"/>
    <polygon points="535.0648,546.1394 220.8407,546.1394 227.7962,558.1866 377.9528,818.2654"/>
    <polygon points="521.1538,534.8008 524.8361,528.4228 517.4715,528.4228 524.8361,528.4228 521.1538,534.8008 517.4715,528.4228"/>
    <polygon points="521.1538,533.6669 518.4534,528.9898 523.8542,528.9898"/>
    <polyline points="520.7856,531.8953 521.522,531.8953 522.1767,530.7614 520.1309,530.7614 519.4763,529.6276 522.8313,529.6276"/>
    <polyline points="512.3981,512.2654 488.9949,512.2654 489.6496,513.3992 511.7435,513.3992 511.0888,514.5331 490.3042,514.5331 490.9588,515.6669 510.4342,515.6669 509.7796,516.8008 491.6135,516.8008 492.2681,517.9347 509.1249,517.9347 508.4703,519.0685 492.9227,519.0685 493.5774,520.2024 507.8157,520.2024 507.161,521.3362 494.232,521.3362 494.8866,522.4701 506.5064,522.4701 505.8518,523.604 495.5413,523.604 496.1959,524.7378 505.1971,524.7378 504.5425,525.8717 496.8505,525.8717 497.5052,527.0055 503.8879,527.0055 503.2332,528.1394 498.1598,528.1394 498.8144,529.2732 502.5786,529.2732 501.924,530.4071 499.4691,530.4071 500.1237,531.541 501.2693,531.541"/>
    <polygon points="483.9215,528.4228 480.2392,534.8008 476.5569,528.4228 480.2392,534.8008 483.9215,528.4228 476.5569,528.4228"/>
    <polyline points="481.9167,529.6276 478.5617,529.6276 479.2164,530.7614 481.2621,530.7614 480.6075,531.8953 479.871,531.8953"/>
    <polygon points="480.2392,533.6669 477.5389,528.9898 482.9396,528.9898"/>
    <polygon points="513.6255,511.2732 500.6965,533.6669 494.232,522.4701 487.7675,511.2732"/>
    <polygon points="514.6075,510.7063 486.7856,510.7063 493.741,522.7536 486.7856,510.7063 514.6075,510.7063 500.6965,534.8008 493.741,522.7536 500.6965,534.8008"/>
    <polyline points="500.3283,496.4622 501.0647,496.4622 501.7194,495.3284 499.6736,495.3284 499.019,494.1945 502.374,494.1945"/>
    <polygon points="497.9962,493.5567 503.3969,493.5567 500.6965,498.2339"/>
    <polygon points="497.0142,492.9898 500.6965,499.3677 504.3788,492.9898 497.0142,492.9898 504.3788,492.9898 500.6965,499.3677"/>
    <polygon points="538.9107,564.4228 544.3115,564.4228 541.6111,569.1"/>
    <polyline points="541.2429,567.3284 541.9793,567.3284 542.634,566.1945 540.5882,566.1945 539.9336,565.0606 543.2886,565.0606"/>
    <polygon points="541.6111,570.2339 545.2934,563.8559 537.9288,563.8559 545.2934,563.8559 541.6111,570.2339 537.9288,563.8559"/>
    <line x1="529.6913" x2="553.5309" y1="582.7536" y2="582.7536"/>
    <polygon points="553.8309,583.3677 529.3913,583.3677 528.6821,582.1394 554.5401,582.1394"/>
    <polygon points="554.1582,583.9347 529.064,583.9347 527.7001,581.5725 555.5221,581.5725"/>
    <polygon points="558.3861,599.289 562.0684,605.6669 565.7507,599.289"/>
    <polygon points="564.3225,599.8559 564.7688,599.8559 562.0684,604.5331 561.8453,604.1466"/>
    <polygon points="565.7507,599.289 562.0684,605.6669 561.1906,604.1466 563.9952,599.289"/>
    <line x1="574.3862" x2="584.4266" y1="583.5591" y2="583.5591"/>
    <polygon points="575.9794,617.0055 541.6111,676.5331 530.5047,657.2962 553.7666,617.0055"/>
    <polygon points="575.9794,617.0055 507.2428,617.0055 541.6111,676.5331"/>
    <polyline points="573.6881,618.7063 554.0939,618.7063 553.4393,619.8402 573.0335,619.8402 572.3789,620.974 552.7846,620.974 552.13,622.1079 571.7242,622.1079 571.0696,623.2417 551.4754,623.2417 550.8207,624.3756 570.415,624.3756 569.7603,625.5095 550.1661,625.5095 549.5115,626.6433 569.1057,626.6433 568.4511,627.7772 548.8568,627.7772 548.2022,628.911 567.7964,628.911 567.1418,630.0449 547.5476,630.0449 546.8929,631.1788 566.4872,631.1788 565.8325,632.3126 546.2383,632.3126 545.5837,633.4465 565.1779,633.4465 564.5233,634.5803 544.929,634.5803 544.2744,635.7142 563.8686,635.7142 563.214,636.848 543.6198,636.848 542.9651,637.9819 562.5594,637.9819 561.9047,639.1158 542.3105,639.1158 541.6559,640.2496 561.2501,640.2496 560.5955,641.3835 541.0012,641.3835 540.3466,642.5173 559.9408,642.5173 559.2862,643.6512 539.692,643.6512 539.0373,644.7851 558.6316,644.7851 557.9769,645.9189 538.3827,645.9189 537.7281,647.0528 557.3223,647.0528 556.6677,648.1866 537.0734,648.1866 536.4188,649.3205 556.013,649.3205 555.3584,650.4543 535.7642,650.4543 535.1095,651.5882 554.7038,651.5882 554.0491,652.7221 534.4549,652.7221 533.8003,653.8559 553.3945,653.8559 552.7399,654.9898 533.1456,654.9898 532.491,656.1236 552.0852,656.1236 551.4306,657.2575 531.8364,657.2575 532.4462,658.3914 550.776,658.3914 550.1213,659.5252 533.1009,659.5252 533.7555,660.6591 549.4667,660.6591 548.8121,661.7929 534.4101,661.7929 535.0648,662.9268 548.1574,662.9268 547.5028,664.0606 535.7194,664.0606 536.374,665.1945 546.8482,665.1945 546.1935,666.3284 537.0287,666.3284 537.6833,667.4622 545.5389,667.4622 544.8843,668.5961 538.3379,668.5961 538.9926,669.7299 544.2296,669.7299 543.575,670.8638 539.6472,670.8638 540.3018,671.9977 542.9204,671.9977 542.2657,673.1315 540.9565,673.1315"/>
    <polygon points="558.3861,670.1551 565.7507,670.1551 562.0684,676.5331 558.3861,670.1551 562.0684,676.5331 565.7507,670.1551"/>
    <polygon points="559.368,670.7221 564.7688,670.7221 562.0684,675.3992"/>
    <polyline points="561.7002,673.6276 562.4366,673.6276 563.0913,672.4937 561.0455,672.4937 560.3909,671.3599 563.7459,671.3599"/>
    <polygon points="582.5257,675.3992 576.0612,664.2024 569.5967,653.0055 595.4547,653.0055"/>
    <polygon points="582.5257,676.5331 596.4366,652.4386 568.6147,652.4386 575.5702,664.4858 568.6147,652.4386 596.4366,652.4386 582.5257,676.5331 575.5702,664.4858"/>
    <polyline points="583.0985,673.2732 581.9529,673.2732 581.2982,672.1394 583.7531,672.1394 584.4078,671.0055 580.6436,671.0055 579.989,669.8717 585.0624,669.8717 585.717,668.7378 579.3343,668.7378 578.6797,667.604 586.3717,667.604 587.0263,666.4701 578.0251,666.4701 577.3704,665.3362 587.6809,665.3362 588.3356,664.2024 576.7158,664.2024 576.0612,663.0685 588.9902,663.0685 589.6448,661.9347 575.4065,661.9347 574.7519,660.8008 590.2995,660.8008 590.9541,659.6669 574.0973,659.6669 573.4426,658.5331 591.6087,658.5331 592.2634,657.3992 572.788,657.3992 572.1334,656.2654 592.918,656.2654 593.5726,655.1315 571.4787,655.1315 570.8241,653.9977 594.2273,653.9977"/>
    <polygon points="582.5257,641.1 586.208,634.7221 578.8434,634.7221 586.208,634.7221 582.5257,641.1 578.8434,634.7221"/>
    <polyline points="582.1575,638.1945 582.8939,638.1945 583.5486,637.0606 581.5028,637.0606 580.8482,635.9268 584.2032,635.9268"/>
    <polygon points="585.226,635.289 582.5257,639.9662 579.8253,635.289"/>
    <polygon points="554.0939,617.5725 574.9974,617.5725 541.6111,675.3992 531.1593,657.2962"/>
    <polygon points="517.4715,599.289 521.1538,605.6669 524.8361,599.289"/>
    <polyline points="512.6436,582.7063 247.5618,582.7063 248.2164,581.5725 513.2982,581.5725 513.9528,580.4386 248.8711,580.4386 249.5257,579.3047 514.6075,579.3047 515.2621,578.1709 250.1803,578.1709 250.835,577.037 515.9167,577.037 516.5714,575.9032 251.4896,575.9032"/>
    <polyline points="257.2722,583.8402 246.9072,583.8402 246.2525,584.974 257.9268,584.974 258.5815,586.1079 245.5979,586.1079 245.8805,587.2417 259.2361,587.2417 259.8907,588.3756 246.5351,588.3756 247.1897,589.5095 260.5454,589.5095 261.2,590.6433 247.8444,590.6433 248.499,591.7772 261.8546,591.7772 262.5093,592.911 249.1536,592.911 249.8083,594.0449 263.1639,594.0449 263.8185,595.1788 250.4629,595.1788 251.1175,596.3126 264.4732,596.3126 265.1278,597.4465 251.7722,597.4465 252.4268,598.5803 265.7824,598.5803 266.4371,599.7142 253.0814,599.7142 253.7361,600.848 267.0917,600.848 267.7463,601.9819 254.3907,601.9819 255.0453,603.1158 268.401,603.1158 269.0556,604.2496 255.7,604.2496 256.3546,605.3835 269.7102,605.3835 270.3649,606.5173 257.0092,606.5173 257.6639,607.6512 271.0195,607.6512 271.6741,608.7851 258.3185,608.7851 258.9731,609.9189 272.3288,609.9189 272.9834,611.0528 259.6278,611.0528 260.2824,612.1866 273.638,612.1866 274.2927,613.3205 260.937,613.3205 261.5917,614.4543 274.9473,614.4543 275.6019,615.5882 262.2463,615.5882 262.9009,616.7221 276.2566,616.7221 276.9112,617.8559 263.5556,617.8559 264.2102,618.9898 277.5658,618.9898 278.2205,620.1236 264.8648,620.1236 265.5195,621.2575 278.8751,621.2575 279.5297,622.3914 266.1741,622.3914 266.8287,623.5252 280.1844,623.5252 280.839,624.6591 267.4834,624.6591 268.138,625.7929 281.4936,625.7929 282.1483,626.9268 268.7926,626.9268 269.4473,628.0606 282.8029,628.0606 283.4575,629.1945 270.1019,629.1945 270.7565,630.3284 284.1122,630.3284 284.7668,631.4622 271.4112,631.4622 272.0658,632.5961 285.4214,632.5961 286.0761,633.7299 272.7204,633.7299 273.3751,634.8638 286.7307,634.8638 287.3853,635.9977 274.0297,635.9977 274.6843,637.1315 288.04,637.1315 288.6946,638.2654 275.339,638.2654 275.9936,639.3992 289.3492,639.3992 290.0039,640.5331 276.6482,640.5331 277.3029,641.6669 290.6585,641.6669 291.3131,642.8008 277.9575,642.8008 278.6121,643.9347 291.9678,643.9347 292.6224,645.0685 279.2668,645.0685 279.9214,646.2024 293.277,646.2024 293.9317,647.3362 280.576,647.3362 281.2307,648.4701 294.5863,648.4701 295.2409,649.604 281.8853,649.604 282.5399,650.7378 295.8956,650.7378 296.5502,651.8717 283.1946,651.8717 283.8492,653.0055 297.2048,653.0055 297.8595,654.1394 284.5038,654.1394 285.1585,655.2732 298.5141,655.2732 299.1687,656.4071 285.8131,656.4071 286.4677,657.541 299.8234,657.541 300.478,658.6748 287.1224,658.6748 287.777,659.8087 301.1326,659.8087 301.7873,660.9425 288.4316,660.9425 289.0863,662.0764 302.4419,662.0764 303.0965,663.2102 289.7409,663.2102 290.3955,664.3441 303.7512,664.3441 304.4058,665.478 291.0502,665.478 291.7048,666.6118 305.0604,666.6118 305.7151,667.7457 292.3594,667.7457 293.0141,668.8795 306.3697,668.8795 307.0243,670.0134 293.6687,670.0134 294.3233,671.1473 307.679,671.1473 308.3336,672.2811 294.978,672.2811 295.6326,673.415 308.9882,673.415 309.6429,674.5488 296.2872,674.5488 296.9419,675.6827 310.2975,675.6827 310.9521,676.8165 297.5965,676.8165 298.2511,677.9504 311.6068,677.9504 312.2614,679.0843 298.9058,679.0843 299.5604,680.2181 312.916,680.2181 313.5707,681.352 300.215,681.352 300.8697,682.4858 314.2253,682.4858 314.8799,683.6197 301.5243,683.6197 302.1789,684.7536 315.5346,684.7536 316.1892,685.8874 302.8336,685.8874 303.4882,687.0213 316.8438,687.0213 317.4985,688.1551 304.1428,688.1551 304.7975,689.289 318.1531,689.289 318.8077,690.4228 305.4521,690.4228 306.1067,691.5567 319.4624,691.5567 320.117,692.6906 306.7614,692.6906 307.416,693.8244 320.7716,693.8244 321.4263,694.9583 308.0706,694.9583 308.7253,696.0921 322.0809,696.0921 322.7355,697.226 309.3799,697.226 310.0345,698.3599 323.3902,698.3599 324.0448,699.4937 310.6892,699.4937 311.3438,700.6276 324.6994,700.6276 325.3541,701.7614 311.9984,701.7614 312.6531,702.8953 326.0087,702.8953 326.6633,704.0291 313.3077,704.0291 313.9623,705.163 327.318,705.163 327.9726,706.2969 314.617,706.2969 315.2716,707.4307 328.6272,707.4307 329.2819,708.5646 315.9262,708.5646 316.5809,709.6984 329.9365,709.6984 330.5911,710.8323 317.2355,710.8323 317.8901,711.9662 331.2458,711.9662 331.9004,713.1 318.5448,713.1 319.1994,714.2339 332.555,714.2339 333.2097,715.3677 319.854,715.3677 320.5087,716.5016 333.8643,716.5016 334.5189,717.6354 321.1633,717.6354 321.8179,718.7693 335.1736,718.7693 335.8282,719.9032 322.4726,719.9032 323.1272,721.037 336.4828,721.037 337.1375,722.1709 323.7818,722.1709 324.4365,723.3047 337.7921,723.3047 338.4467,724.4386 325.0911,724.4386 328.0817,726.7063 339.756,726.7063 339.1014,725.5725 328.7363,725.5725 327.4271,727.8402 340.4106,727.8402 341.0653,728.974 327.7096,728.974 328.3643,730.1079 341.7199,730.1079 342.3745,731.2417 329.0189,731.2417 329.6735,732.3756 343.0292,732.3756 343.6838,733.5095 330.3282,733.5095 330.9828,734.6433 344.3384,734.6433 344.9931,735.7772 331.6374,735.7772 332.2921,736.911 345.6477,736.911 346.3023,738.0449 332.9467,738.0449 333.6013,739.1788 346.957,739.1788 347.6116,740.3126 334.256,740.3126 334.9106,741.4465 348.2662,741.4465 348.9209,742.5803 335.5652,742.5803 336.2199,743.7142 349.5755,743.7142 350.2301,744.848 336.8745,744.848 337.5291,745.9819 350.8848,745.9819 351.5394,747.1158 338.1838,747.1158 338.8384,748.2496 352.194,748.2496 352.8487,749.3835 339.493,749.3835 340.1477,750.5173 353.5033,750.5173 354.1579,751.6512 340.8023,751.6512 341.4569,752.7851 354.8126,752.7851 355.4672,753.9189 342.1116,753.9189 342.7662,755.0528 356.1218,755.0528 356.7765,756.1866 343.4208,756.1866 344.0755,757.3205 357.4311,757.3205 358.0857,758.4543 344.7301,758.4543 345.3847,759.5882 358.7404,759.5882 359.395,760.7221 346.0394,760.7221 346.694,761.8559 360.0496,761.8559 360.7043,762.9898 347.3486,762.9898 348.0033,764.1236 361.3589,764.1236 362.0135,765.2575 348.6579,765.2575 349.3125,766.3914 362.6682,766.3914 363.3228,767.5252 349.9672,767.5252 350.6218,768.6591 363.9774,768.6591 364.6321,769.7929 351.2764,769.7929 351.9311,770.9268 365.2867,770.9268 365.9413,772.0606 352.5857,772.0606 353.2403,773.1945 366.596,773.1945 367.2506,774.3284 353.895,774.3284 354.5496,775.4622 367.9052,775.4622 368.5599,776.5961 355.2042,776.5961 355.8589,777.7299 369.2145,777.7299 369.8691,778.8638 356.5135,778.8638 357.1681,779.9977 370.5238,779.9977 371.1784,781.1315 357.8228,781.1315 358.4774,782.2654 371.833,782.2654 372.4877,783.3992 359.132,783.3992 359.7867,784.5331 373.1423,784.5331 373.7969,785.6669 360.4413,785.6669 361.0959,786.8008 374.4516,786.8008 375.1062,787.9347 361.7506,787.9347 362.4052,789.0685 375.7608,789.0685 376.4155,790.2024 363.0598,790.2024 363.7145,791.3362 377.0701,791.3362 377.7247,792.4701 364.3691,792.4701 365.0237,793.604 378.3794,793.604 379.034,794.7378 365.6784,794.7378 366.333,795.8717 379.6886,795.8717 380.3433,797.0055 366.9876,797.0055 367.6423,798.1394 380.9979,798.1394 381.6525,799.2732 368.2969,799.2732 368.9515,800.4071 382.3072,800.4071 382.9618,801.541 369.6062,801.541 370.2608,802.6748 383.6164,802.6748 384.2711,803.8087 370.9154,803.8087 371.5701,804.9425 384.3354,804.9425 383.6808,806.0764 372.2247,806.0764 372.8793,807.2102 383.0262,807.2102 382.3715,808.3441 373.534,808.3441 374.1886,809.478 381.7169,809.478 381.0623,810.6118 374.8432,810.6118 375.4979,811.7457 380.4076,811.7457 379.753,812.8795 376.1525,812.8795 376.8071,814.0134 379.0984,814.0134 378.4437,815.1473 377.4618,815.1473"/>
    <polygon points="385.2852,804.4313 377.9528,817.1315 326.5864,728.1624 328.3545,725.1 324.8183,725.1 244.7572,586.4301 267.6918,546.7063 400.1459,546.7063 415.748,573.7299 431.3501,546.7063 534.0828,546.7063 512.9163,583.3677 257.6541,583.3677"/>
    <polygon points="394.7277,811.8874 398.41,818.2654 402.0924,811.8874"/>
    <polygon points="418.8673,818.2654 432.7783,794.1709 404.9564,794.1709"/>
    <polyline points="431.6761,830.7402 563.4783,830.7402 564.133,831.874 431.0215,831.874 430.3668,833.0079 564.7876,833.0079 565.4422,834.1417 429.7122,834.1417 429.0576,835.2756 566.0969,835.2756 566.7515,836.4094 428.4029,836.4094 427.7483,837.5433 567.4061,837.5433 568.0608,838.6772 427.0937,838.6772 426.439,839.811 568.7154,839.811 569.37,840.9449 425.7844,840.9449 425.1298,842.0787 570.0247,842.0787 570.6793,843.2126 424.4751,843.2126 423.8205,844.3465 571.3339,844.3465 571.9886,845.4803 423.1659,845.4803 422.5112,846.6142 572.6432,846.6142 573.2978,847.748 421.8566,847.748 421.202,848.8819 573.9525,848.8819 574.6071,850.0157 420.5473,850.0157 419.8927,851.1496 575.2617,851.1496 575.9164,852.2835 419.2381,852.2835 418.5834,853.4173 576.571,853.4173 577.2256,854.5512 417.9288,854.5512 417.2742,855.685 577.8803,855.685 578.5349,856.8189 416.6195,856.8189"/>
    <polygon points="439.3246,818.2654 438.4469,816.7451 441.2515,811.8874 443.0069,811.8874"/>
    <polygon points="441.5788,812.4543 442.025,812.4543 439.3246,817.1315 439.1015,816.7451"/>
    <polygon points="435.6423,811.8874 439.3246,818.2654 443.0069,811.8874"/>
    <polyline points="459.1273,814.8638 460.4366,814.8638 461.0912,813.7299 458.4727,813.7299 457.818,812.5961 461.7458,812.5961 462.4005,811.4622 457.1634,811.4622 456.5088,810.3284 463.0551,810.3284 463.7097,809.1945 455.8541,809.1945 455.1995,808.0606 464.3644,808.0606 465.019,806.9268 454.5449,806.9268 453.8902,805.7929 465.6736,805.7929 466.3283,804.6591 453.2356,804.6591 452.581,803.5252 466.9829,803.5252 467.6375,802.3914 451.9263,802.3914 451.2717,801.2575 468.2922,801.2575 468.9468,800.1236 450.6171,800.1236 450.0072,798.9898 469.6014,798.9898 470.2561,797.8559 450.6618,797.8559 451.3164,796.7221 470.9107,796.7221 471.5653,795.5882 451.9711,795.5882 452.6257,794.4543 472.22,794.4543 472.8746,793.3205 453.2803,793.3205 453.935,792.1866 473.5292,792.1866 474.1839,791.0528 454.5896,791.0528 455.2442,789.9189 474.8385,789.9189 475.4931,788.7851 455.8989,788.7851 456.5535,787.6512 476.1478,787.6512 476.8024,786.5173 457.2081,786.5173 457.8628,785.3835 477.457,785.3835 478.1117,784.2496 458.5174,784.2496 459.172,783.1158 478.7663,783.1158 479.4209,781.9819 459.8267,781.9819 460.4813,780.848 480.0756,780.848 480.7302,779.7142 461.1359,779.7142 461.7906,778.5803 481.3848,778.5803 482.0395,777.4465 462.4452,777.4465 463.0998,776.3126 482.6941,776.3126 483.3487,775.1788 463.7545,775.1788 464.4091,774.0449 484.0034,774.0449 484.658,772.911 465.0637,772.911 465.7184,771.7772 485.3126,771.7772 485.9673,770.6433 466.373,770.6433 467.0276,769.5095 486.6219,769.5095 487.2765,768.3756 467.6823,768.3756 468.3369,767.2417 487.9312,767.2417 488.5858,766.1079 468.9915,766.1079 469.6462,764.974 489.2404,764.974 489.8951,763.8402 470.3008,763.8402 470.9554,762.7063 490.5497,762.7063 491.2043,761.5725 471.6101,761.5725 472.2647,760.4386 491.859,760.4386"/>
    <polygon points="493.1682,759.3047 459.7819,817.1315 449.3302,799.0285 472.2647,759.3047"/>
    <polygon points="494.1502,758.7378 459.7819,818.2654 448.6755,799.0285 471.9374,758.7378"/>
    <polygon points="480.2392,747.3992 483.9215,741.0213 476.5569,741.0213"/>
    <polygon points="482.9396,741.5882 480.2392,746.2654 480.0161,745.8789 482.4934,741.5882"/>
    <polygon points="483.9215,741.0213 480.2392,747.3992 479.3615,745.8789 482.166,741.0213"/>
    <polyline points="502.7597,725.5725 492.3947,725.5725 491.7401,726.7063 503.4144,726.7063 504.069,727.8402 491.0854,727.8402 491.368,728.974 504.7236,728.974 505.3783,730.1079 492.0226,730.1079 492.6773,731.2417 506.0329,731.2417 506.6875,732.3756 493.3319,732.3756 493.9865,733.5095 507.3422,733.5095 507.9968,734.6433 494.6412,734.6433 495.2958,735.7772 508.6514,735.7772 509.3061,736.911 495.9504,736.911 496.6051,738.0449 509.9607,738.0449 510.6153,739.1788 497.2597,739.1788 497.9143,740.3126 511.27,740.3126 511.9246,741.4465 498.569,741.4465 499.2236,742.5803 512.5792,742.5803 513.2339,743.7142 499.8782,743.7142 500.5329,744.848 513.8885,744.848 514.5431,745.9819 501.1875,745.9819 501.8421,747.1158 515.1978,747.1158 515.8524,748.2496 502.4968,748.2496 503.1514,749.3835 516.507,749.3835 517.1617,750.5173 503.806,750.5173 504.4607,751.6512 517.8163,751.6512 518.4709,752.7851 505.1153,752.7851 505.7699,753.9189 519.1256,753.9189 519.7802,755.0528 506.4246,755.0528 507.0792,756.1866 520.4348,756.1866 521.0895,757.3205 507.7338,757.3205 508.3885,758.4543 521.7441,758.4543 522.3987,759.5882 509.0431,759.5882 509.6977,760.7221 523.0534,760.7221 523.708,761.8559 510.3524,761.8559 511.007,762.9898 524.3626,762.9898 525.0173,764.1236 511.6616,764.1236 512.3163,765.2575 525.6719,765.2575 526.3265,766.3914 512.9709,766.3914 513.6255,767.5252 526.9812,767.5252 527.6358,768.6591 514.2802,768.6591 514.9348,769.7929 528.2904,769.7929 528.9451,770.9268 515.5894,770.9268 516.2441,772.0606 529.5997,772.0606 530.2543,773.1945 516.8987,773.1945 517.5533,774.3284 530.909,774.3284 531.5636,775.4622 518.208,775.4622 518.8626,776.5961 532.2182,776.5961 532.8729,777.7299 519.5172,777.7299 520.1719,778.8638 533.5275,778.8638 534.1821,779.9977 520.8265,779.9977 521.4811,781.1315 534.8368,781.1315 535.4914,782.2654 522.1358,782.2654 522.7904,783.3992 536.146,783.3992 536.8007,784.5331 523.445,784.5331 524.0997,785.6669 537.4553,785.6669 538.1099,786.8008 524.7543,786.8008 525.4089,787.9347 538.7646,787.9347 539.4192,789.0685 526.0636,789.0685 526.7182,790.2024 540.0738,790.2024 540.7285,791.3362 527.3728,791.3362 528.0275,792.4701 541.3831,792.4701 542.0377,793.604 528.6821,793.604 529.3367,794.7378 542.6924,794.7378 543.347,795.8717 529.9914,795.8717 530.646,797.0055 544.0016,797.0055 544.6563,798.1394 531.3006,798.1394 531.9553,799.2732 545.3109,799.2732 545.9655,800.4071 532.6099,800.4071 533.2645,801.541 546.6202,801.541 547.2748,802.6748 533.9192,802.6748 534.5738,803.8087 547.9294,803.8087 547.9938,804.9425 535.2284,804.9425 535.8831,806.0764 547.3391,806.0764 546.6845,807.2102 536.5377,807.2102 537.1923,808.3441 546.0299,808.3441 545.3752,809.478 537.847,809.478 538.5016,810.6118 544.7206,810.6118 544.066,811.7457 539.1562,811.7457 539.8109,812.8795 543.4113,812.8795 542.7567,814.0134 540.4655,814.0134 541.1201,815.1473 542.1021,815.1473"/>
    <polygon points="548.9435,804.4313 541.6111,817.1315 490.2448,728.1624 513.1793,688.4386 615.912,688.4386 594.7455,725.1 503.1416,725.1"/>
    <polygon points="562.0684,818.2654 565.7507,811.8874 558.3861,811.8874"/>
    <polygon points="523.8542,812.4543 521.1538,817.1315 518.4534,812.4543"/>
    <polyline points="522.8313,813.0921 519.4763,813.0921 520.1309,814.226 522.1767,814.226 521.522,815.3599 520.7856,815.3599"/>
    <polygon points="521.1538,818.2654 517.4715,811.8874 521.1538,818.2654 524.8361,811.8874 517.4715,811.8874 524.8361,811.8874"/>
    <polyline points="501.2693,815.0055 500.1237,815.0055 499.4691,813.8717 501.924,813.8717 502.5786,812.7378 498.8144,812.7378 498.1598,811.604 503.2332,811.604 503.8879,810.4701 497.5052,810.4701 496.8505,809.3362 504.5425,809.3362 505.1971,808.2024 496.1959,808.2024 495.5413,807.0685 505.8518,807.0685 506.5064,805.9347 494.8866,805.9347 494.232,804.8008 507.161,804.8008 507.8157,803.6669 493.5774,803.6669 492.9227,802.5331 508.4703,802.5331 509.1249,801.3992 492.2681,801.3992 491.6135,800.2654 509.7796,800.2654 510.4342,799.1315 490.9588,799.1315 490.3042,797.9977 511.0888,797.9977 511.7435,796.8638 489.6496,796.8638 488.9949,795.7299 512.3981,795.7299"/>
    <polygon points="500.6965,782.8323 497.0142,776.4543 500.6965,782.8323 504.3788,776.4543 497.0142,776.4543 504.3788,776.4543"/>
    <polyline points="500.3283,779.9268 501.0647,779.9268 501.7194,778.7929 499.6736,778.7929 499.019,777.6591 502.374,777.6591"/>
    <polygon points="503.3969,777.0213 500.6965,781.6984 497.9962,777.0213"/>
    <polygon points="494.232,805.9347 487.7675,794.7378 513.6255,794.7378 500.6965,817.1315"/>
    <polygon points="483.9215,811.8874 476.5569,811.8874 483.9215,811.8874 480.2392,818.2654 476.5569,811.8874 480.2392,818.2654"/>
    <polyline points="481.9167,813.0921 478.5617,813.0921 479.2164,814.226 481.2621,814.226 480.6075,815.3599 479.871,815.3599"/>
    <polygon points="477.5389,812.4543 482.9396,812.4543 480.2392,817.1315"/>
    <polygon points="500.6965,818.2654 493.741,806.2181 500.6965,818.2654 514.6075,794.1709 486.7856,794.1709 493.741,806.2181 486.7856,794.1709 514.6075,794.1709"/>
    <polygon points="459.7819,747.3992 473.6929,723.3047 445.871,723.3047"/>
    <polygon points="435.6423,741.0213 439.3246,747.3992 443.0069,741.0213"/>
    <polygon points="425.4137,758.7378 459.7819,818.2654 494.1502,758.7378"/>
    <polygon points="415.185,776.4543 418.8673,782.8323 422.5497,776.4543"/>
    <polygon points="350.9491,794.1709 337.0382,794.1709 350.9491,794.1709 337.0382,818.2654 323.1272,794.1709 337.0382,794.1709 323.1272,794.1709 337.0382,818.2654"/>
    <polyline points="348.7397,795.7299 325.3366,795.7299 325.9912,796.8638 348.0851,796.8638 347.4305,797.9977 326.6459,797.9977 327.3005,799.1315 346.7758,799.1315 346.1212,800.2654 327.9551,800.2654 328.6098,801.3992 345.4666,801.3992 344.8119,802.5331 329.2644,802.5331 329.919,803.6669 344.1573,803.6669 343.5027,804.8008 330.5737,804.8008 331.2283,805.9347 342.848,805.9347 342.1934,807.0685 331.8829,807.0685 332.5376,808.2024 341.5388,808.2024 340.8841,809.3362 333.1922,809.3362 333.8468,810.4701 340.2295,810.4701 339.5749,811.604 334.5015,811.604 335.1561,812.7378 338.9202,812.7378 338.2656,813.8717 335.8107,813.8717 336.4654,815.0055 337.611,815.0055"/>
    <polygon points="337.0382,817.1315 324.1092,794.7378 349.9672,794.7378"/>
    <polygon points="319.2812,812.4543 316.5809,817.1315 313.8805,812.4543"/>
    <polyline points="318.2584,813.0921 314.9034,813.0921 315.558,814.226 317.6037,814.226 316.9491,815.3599 316.2126,815.3599"/>
    <polygon points="316.5809,818.2654 320.2632,811.8874 312.8986,811.8874 320.2632,811.8874 316.5809,818.2654 312.8986,811.8874"/>
    <polygon points="296.1236,818.2654 330.4918,758.7378 316.5809,758.7378 261.7553,758.7378"/>
    <polygon points="296.1236,817.1315 285.6718,799.0285 308.6064,759.3047 329.5099,759.3047"/>
    <polyline points="295.469,814.8638 296.7782,814.8638 297.4329,813.7299 294.8143,813.7299 294.1597,812.5961 298.0875,812.5961 298.7421,811.4622 293.5051,811.4622 292.8504,810.3284 299.3968,810.3284 300.0514,809.1945 292.1958,809.1945 291.5412,808.0606 300.706,808.0606 301.3607,806.9268 290.8865,806.9268 290.2319,805.7929 302.0153,805.7929 302.6699,804.6591 289.5773,804.6591 288.9226,803.5252 303.3246,803.5252 303.9792,802.3914 288.268,802.3914 287.6134,801.2575 304.6338,801.2575 305.2885,800.1236 286.9587,800.1236 286.3488,798.9898 305.9431,798.9898 306.5977,797.8559 287.0035,797.8559 287.6581,796.7221 307.2524,796.7221 307.907,795.5882 288.3127,795.5882 288.9674,794.4543 308.5616,794.4543 309.2163,793.3205 289.622,793.3205 290.2766,792.1866 309.8709,792.1866 310.5255,791.0528 290.9313,791.0528 291.5859,789.9189 311.1802,789.9189 311.8348,788.7851 292.2405,788.7851 292.8952,787.6512 312.4894,787.6512 313.1441,786.5173 293.5498,786.5173 294.2044,785.3835 313.7987,785.3835 314.4533,784.2496 294.8591,784.2496 295.5137,783.1158 315.108,783.1158 315.7626,781.9819 296.1683,781.9819 296.823,780.848 316.4172,780.848 317.0719,779.7142 297.4776,779.7142 298.1322,778.5803 317.7265,778.5803 318.3811,777.4465 298.7869,777.4465 299.4415,776.3126 319.0358,776.3126 319.6904,775.1788 300.0961,775.1788 300.7508,774.0449 320.345,774.0449 320.9997,772.911 301.4054,772.911 302.06,771.7772 321.6543,771.7772 322.3089,770.6433 302.7147,770.6433 303.3693,769.5095 322.9636,769.5095 323.6182,768.3756 304.0239,768.3756 304.6786,767.2417 324.2728,767.2417 324.9275,766.1079 305.3332,766.1079 305.9878,764.974 325.5821,764.974 326.2367,763.8402 306.6425,763.8402 307.2971,762.7063 326.8914,762.7063 327.546,761.5725 307.9517,761.5725 308.6064,760.4386 328.2006,760.4386"/>
    <polygon points="333.3559,776.4543 337.0382,782.8323 340.7205,776.4543 333.3559,776.4543 340.7205,776.4543 337.0382,782.8323"/>
    <polyline points="336.6699,779.9268 337.4064,779.9268 338.061,778.7929 336.0153,778.7929 335.3607,777.6591 338.7157,777.6591"/>
    <polygon points="339.7385,777.0213 337.0382,781.6984 334.3378,777.0213"/>
    <polygon points="316.5809,747.3992 315.7031,745.8789 318.5077,741.0213 320.2632,741.0213"/>
    <polygon points="316.3578,745.8789 318.835,741.5882 319.2812,741.5882 316.5809,746.2654"/>
    <polygon points="312.8986,741.0213 316.5809,747.3992 320.2632,741.0213"/>
    <line x1="308.0434" x2="284.2038" y1="724.4858" y2="724.4858"/>
    <polygon points="283.9038,725.1 283.1946,723.8717 309.0526,723.8717 308.3434,725.1"/>
    <polygon points="282.2126,723.3047 310.0345,723.3047 308.6707,725.6669 283.5764,725.6669"/>
    <polyline points="267.1561,724.4386 165.7326,724.4386 166.3873,723.3047 267.8107,723.3047 268.4653,722.1709 167.0419,722.1709 167.6965,721.037 269.12,721.037 269.7746,719.9032 168.3512,719.9032 169.0058,718.7693 270.4292,718.7693 271.0839,717.6354 169.6604,717.6354 170.3151,716.5016 271.7385,716.5016 272.3931,715.3677 170.9697,715.3677 171.6243,714.2339 273.0478,714.2339 273.7024,713.1 172.279,713.1 172.9336,711.9662 274.357,711.9662 275.0117,710.8323 173.5882,710.8323 174.2429,709.6984 275.6663,709.6984 276.3209,708.5646 174.8975,708.5646 175.5521,707.4307 276.9756,707.4307 277.6302,706.2969 176.2068,706.2969 176.8614,705.163 278.2848,705.163 278.9395,704.0291 177.516,704.0291 178.1707,702.8953 279.5941,702.8953 280.2487,701.7614 178.8253,701.7614 179.4799,700.6276 280.9034,700.6276 281.558,699.4937 180.1346,699.4937 180.7892,698.3599 282.2126,698.3599 282.8673,697.226 181.4438,697.226 182.0985,696.0921 283.5219,696.0921 284.1765,694.9583 182.7531,694.9583 183.4077,693.8244 284.8312,693.8244 285.4858,692.6906 184.0624,692.6906 184.717,691.5567 286.1404,691.5567 286.7951,690.4228 185.3716,690.4228 186.0263,689.289 287.4497,689.289"/>
    <polygon points="289.5773,687.8717 139.0116,687.8717 145.9671,699.9189 214.2944,818.2654"/>
    <polyline points="275.2981,673.6276 276.0345,673.6276 276.6892,672.4937 274.6434,672.4937 273.9888,671.3599 277.3438,671.3599"/>
    <polygon points="279.3486,670.1551 275.6663,676.5331 271.984,670.1551 275.6663,676.5331 279.3486,670.1551 271.984,670.1551"/>
    <polygon points="272.9659,670.7221 278.3667,670.7221 275.6663,675.3992"/>
    <polyline points="255.7818,673.2732 254.6362,673.2732 253.9816,672.1394 256.4364,672.1394 257.0911,671.0055 253.3269,671.0055 252.6723,669.8717 257.7457,669.8717 258.4003,668.7378 252.0177,668.7378 251.363,667.604 259.055,667.604 259.7096,666.4701 250.7084,666.4701 250.0538,665.3362 260.3642,665.3362 261.0189,664.2024 249.3991,664.2024 248.7445,663.0685 261.6735,663.0685 262.3281,661.9347 248.0899,661.9347 247.4352,660.8008 262.9828,660.8008 263.6374,659.6669 246.7806,659.6669 246.126,658.5331 264.292,658.5331 264.9467,657.3992 245.4713,657.3992 244.8167,656.2654 265.6013,656.2654 266.2559,655.1315 244.1621,655.1315 243.5074,653.9977 266.9106,653.9977"/>
    <polygon points="268.138,653.0055 255.209,675.3992 242.28,653.0055"/>
    <polyline points="254.8408,638.1945 255.5772,638.1945 256.2319,637.0606 254.1861,637.0606 253.5315,635.9268 256.8865,635.9268"/>
    <polygon points="257.9094,635.289 255.209,639.9662 252.5086,635.289"/>
    <polygon points="251.5267,634.7221 255.209,641.1 258.8913,634.7221 251.5267,634.7221 258.8913,634.7221 255.209,641.1"/>
    <polyline points="246.3714,618.7063 226.7772,618.7063 226.1226,619.8402 245.7168,619.8402 245.0622,620.974 225.4679,620.974 224.8133,622.1079 244.4075,622.1079 243.7529,623.2417 224.1587,623.2417 223.504,624.3756 243.0983,624.3756 242.4436,625.5095 222.8494,625.5095 222.1948,626.6433 241.789,626.6433 241.1344,627.7772 221.5401,627.7772 220.8855,628.911 240.4797,628.911 239.8251,630.0449 220.2309,630.0449 219.5762,631.1788 239.1705,631.1788 238.5158,632.3126 218.9216,632.3126 218.267,633.4465 237.8612,633.4465 237.2066,634.5803 217.6123,634.5803 216.9577,635.7142 236.5519,635.7142 235.8973,636.848 216.3031,636.848 215.6484,637.9819 235.2427,637.9819 234.588,639.1158 214.9938,639.1158 214.3392,640.2496 233.9334,640.2496 233.2788,641.3835 213.6845,641.3835 213.0299,642.5173 232.6241,642.5173 231.9695,643.6512 212.3753,643.6512 211.7206,644.7851 231.3149,644.7851 230.6602,645.9189 211.066,645.9189 210.4114,647.0528 230.0056,647.0528 229.351,648.1866 209.7567,648.1866 209.1021,649.3205 228.6963,649.3205 228.0417,650.4543 208.4475,650.4543 207.7928,651.5882 227.3871,651.5882 226.7324,652.7221 207.1382,652.7221 206.4836,653.8559 226.0778,653.8559 225.4232,654.9898 205.8289,654.9898 205.1743,656.1236 224.7685,656.1236 224.1139,657.2575 204.5197,657.2575 205.1295,658.3914 223.4593,658.3914 222.8046,659.5252 205.7842,659.5252 206.4388,660.6591 222.15,660.6591 221.4954,661.7929 207.0934,661.7929 207.7481,662.9268 220.8407,662.9268 220.1861,664.0606 208.4027,664.0606 209.0573,665.1945 219.5315,665.1945 218.8768,666.3284 209.712,666.3284 210.3666,667.4622 218.2222,667.4622 217.5676,668.5961 211.0212,668.5961 211.6759,669.7299 216.9129,669.7299 216.2583,670.8638 212.3305,670.8638 212.9851,671.9977 215.6037,671.9977 214.949,673.1315 213.6398,673.1315"/>
    <polygon points="214.2944,675.3992 203.8427,657.2962 226.7772,617.5725 247.6807,617.5725"/>
    <polygon points="197.5194,670.1551 193.8371,676.5331 192.9594,675.0128 195.7639,670.1551"/>
    <polygon points="197.5194,670.1551 190.1548,670.1551 193.8371,676.5331"/>
    <polygon points="196.5375,670.7221 193.8371,675.3992 193.614,675.0128 196.0913,670.7221"/>
    <polygon points="185.8626,688.4386 288.5953,688.4386 267.4288,725.1 175.8249,725.1 221.6269,804.4313 214.2944,817.1315 162.9281,728.1624"/>
    <polygon points="156.6048,670.1551 149.2402,670.1551 152.9225,676.5331"/>
    <polygon points="159.4689,652.4386 166.4243,664.4858 173.3798,676.5331 187.2908,652.4386"/>
    <polygon points="173.3798,641.1 177.0621,634.7221 169.6975,634.7221"/>
    <polygon points="197.5194,599.289 190.1548,599.289 193.8371,605.6669"/>
    <polygon points="214.2944,605.6669 228.2054,581.5725 200.3835,581.5725 207.3389,593.6197"/>
    <polygon points="226.4499,617.0055 248.6627,617.0055 214.2944,676.5331 203.188,657.2962"/>
    <polygon points="233.874,604.1466 236.6785,599.289 238.434,599.289 234.7517,605.6669"/>
    <polygon points="234.5286,604.1466 237.0058,599.8559 237.4521,599.8559 234.7517,604.5331"/>
    <polygon points="238.434,599.289 231.0694,599.289 234.7517,605.6669"/>
    <polygon points="248.6627,617.0055 179.9262,617.0055 186.8816,629.0528 214.2944,676.5331"/>
    <polyline points="236.4292,671.3599 233.0742,671.3599 233.7288,672.4937 235.7746,672.4937 235.1199,673.6276 234.3835,673.6276"/>
    <polygon points="234.7517,675.3992 232.0513,670.7221 237.4521,670.7221"/>
    <polygon points="234.7517,676.5331 238.434,670.1551 231.0694,670.1551 238.434,670.1551 234.7517,676.5331 231.0694,670.1551"/>
    <polygon points="255.209,676.5331 241.298,652.4386 255.209,652.4386 241.298,652.4386 255.209,676.5331 269.12,652.4386 255.209,652.4386 269.12,652.4386"/>
    <polyline points="295.7554,709.0606 296.4918,709.0606 297.1464,707.9268 295.1007,707.9268 294.4461,706.7929 297.8011,706.7929"/>
    <polygon points="298.8239,706.1551 296.1236,710.8323 293.4232,706.1551"/>
    <polygon points="296.1236,711.9662 299.8059,705.5882 292.4413,705.5882 299.8059,705.5882 296.1236,711.9662 292.4413,705.5882"/>
    <polygon points="279.3486,741.0213 271.984,741.0213 275.6663,747.3992"/>
    <polygon points="296.1236,747.3992 310.0345,723.3047 296.1236,723.3047 282.2126,723.3047"/>
    <polygon points="327.3725,725.6669 324.491,725.6669 244.1026,586.4301 267.3645,546.1394 400.4733,546.1394 415.748,572.5961 431.0228,546.1394 535.0648,546.1394 513.2437,583.9347 258.636,583.9347 385.9398,804.4313 377.9528,818.2654 325.9318,728.1624"/>
    <polygon points="285.0172,799.0285 308.2791,758.7378 330.4918,758.7378 296.1236,818.2654"/>
    <polygon points="279.3486,811.8874 271.984,811.8874 275.6663,818.2654"/>
    <polygon points="278.3667,812.4543 275.6663,817.1315 275.4432,816.7451 277.9204,812.4543"/>
    <polygon points="274.7885,816.7451 277.5931,811.8874 279.3486,811.8874 275.6663,818.2654"/>
    <polyline points="268.0177,830.7402 399.82,830.7402 400.4746,831.874 267.3631,831.874 266.7085,833.0079 401.1292,833.0079 401.7839,834.1417 266.0538,834.1417 265.3992,835.2756 402.4385,835.2756 403.0931,836.4094 264.7446,836.4094 264.0899,837.5433 403.7478,837.5433 404.4024,838.6772 263.4353,838.6772 262.7807,839.811 405.057,839.811 405.7117,840.9449 262.126,840.9449 261.4714,842.0787 406.3663,842.0787 407.0209,843.2126 260.8168,843.2126 260.1621,844.3465 407.6756,844.3465 408.3302,845.4803 259.5075,845.4803 258.8529,846.6142 408.9848,846.6142 409.6395,847.748 258.1982,847.748 257.5436,848.8819 410.2941,848.8819 410.9487,850.0157 256.889,850.0157 256.2343,851.1496 411.6034,851.1496 412.258,852.2835 255.5797,852.2835 254.9251,853.4173 412.9126,853.4173 413.5673,854.5512 254.2704,854.5512 253.6158,855.685 414.2219,855.685 414.8765,856.8189 252.9612,856.8189"/>
    <polygon points="252.0897,856.0606 267.3645,829.604 400.4733,829.604 415.748,856.0606 431.0228,829.604 564.1316,829.604 579.4064,856.0606 594.6812,829.604 705.2694,829.604 707.077,829.1437 708.4443,827.875 709.0478,825.7302 708.5426,823.9347 653.2485,728.1624 654.6892,725.6669 651.8077,725.6669 571.4193,586.4301 572.86,583.9347 569.9785,583.9347 489.5901,444.6978 491.0309,442.2024 488.1494,442.2024 407.7609,302.9655 412.9142,294.1897 414.4554,293.139 415.9364,292.9157 417.7188,293.4655 419.0212,294.8008 746.3379,861.7299 746.8337,863.9021 746.583,865.0005 745.7704,866.2587 744.5328,867.1024 743.0647,867.3992 88.4313,867.3992 86.9632,867.1024 85.7257,866.2587 84.9131,865.0005 84.653,863.5255 84.9863,862.0652 103.7061,829.604 236.8149,829.604"/>
    <polygon points="255.209,818.2654 269.12,794.1709 255.209,794.1709 241.298,794.1709"/>
    <polygon points="234.7517,818.2654 238.434,811.8874 231.0694,811.8874"/>
    <polygon points="222.2815,804.4313 214.2944,818.2654 162.2734,728.1624 185.5353,687.8717 289.5773,687.8717 267.7561,725.6669 176.8068,725.6669"/>
    <polyline points="214.7854,815.1473 213.8034,815.1473 213.1488,814.0134 215.44,814.0134 216.0947,812.8795 212.4942,812.8795 211.8395,811.7457 216.7493,811.7457 217.4039,810.6118 211.1849,810.6118 210.5303,809.478 218.0586,809.478 218.7132,808.3441 209.8756,808.3441 209.221,807.2102 219.3678,807.2102 220.0225,806.0764 208.5664,806.0764 207.9117,804.9425 220.6771,804.9425 220.6127,803.8087 207.2571,803.8087 206.6025,802.6748 219.9581,802.6748 219.3035,801.541 205.9478,801.541 205.2932,800.4071 218.6488,800.4071 217.9942,799.2732 204.6386,799.2732 203.9839,798.1394 217.3396,798.1394 216.6849,797.0055 203.3293,797.0055 202.6747,795.8717 216.0303,795.8717 215.3757,794.7378 202.02,794.7378 201.3654,793.604 214.721,793.604 214.0664,792.4701 200.7108,792.4701 200.0561,791.3362 213.4118,791.3362 212.7571,790.2024 199.4015,790.2024 198.7469,789.0685 212.1025,789.0685 211.4479,787.9347 198.0922,787.9347 197.4376,786.8008 210.7932,786.8008 210.1386,785.6669 196.783,785.6669 196.1283,784.5331 209.484,784.5331 208.8293,783.3992 195.4737,783.3992 194.8191,782.2654 208.1747,782.2654 207.5201,781.1315 194.1644,781.1315 193.5098,779.9977 206.8654,779.9977 206.2108,778.8638 192.8552,778.8638 192.2005,777.7299 205.5562,777.7299 204.9015,776.5961 191.5459,776.5961 190.8913,775.4622 204.2469,775.4622 203.5923,774.3284 190.2366,774.3284 189.582,773.1945 202.9376,773.1945 202.283,772.0606 188.9274,772.0606 188.2727,770.9268 201.6284,770.9268 200.9737,769.7929 187.6181,769.7929 186.9635,768.6591 200.3191,768.6591 199.6645,767.5252 186.3088,767.5252 185.6542,766.3914 199.0098,766.3914 198.3552,765.2575 184.9996,765.2575 184.3449,764.1236 197.7006,764.1236 197.0459,762.9898 183.6903,762.9898 183.0357,761.8559 196.3913,761.8559 195.7367,760.7221 182.381,760.7221 181.7264,759.5882 195.082,759.5882 194.4274,758.4543 181.0718,758.4543 180.4171,757.3205 193.7728,757.3205 193.1181,756.1866 179.7625,756.1866 179.1079,755.0528 192.4635,755.0528 191.8089,753.9189 178.4532,753.9189 177.7986,752.7851 191.1542,752.7851 190.4996,751.6512 177.144,751.6512 176.4893,750.5173 189.845,750.5173 189.1903,749.3835 175.8347,749.3835 175.1801,748.2496 188.5357,748.2496 187.8811,747.1158 174.5254,747.1158 173.8708,745.9819 187.2264,745.9819 186.5718,744.848 173.2162,744.848 172.5615,743.7142 185.9172,743.7142 185.2625,742.5803 171.9069,742.5803 171.2523,741.4465 184.6079,741.4465 183.9533,740.3126 170.5976,740.3126 169.943,739.1788 183.2986,739.1788 182.644,738.0449 169.2884,738.0449 168.6337,736.911 181.9894,736.911 181.3347,735.7772 167.9791,735.7772 167.3245,734.6433 180.6801,734.6433 180.0255,733.5095 166.6698,733.5095 166.0152,732.3756 179.3708,732.3756 178.7162,731.2417 165.3606,731.2417 164.7059,730.1079 178.0616,730.1079 177.4069,728.974 164.0513,728.974 163.7687,727.8402 176.7523,727.8402 176.0977,726.7063 164.4234,726.7063 165.078,725.5725 175.443,725.5725"/>
    <polygon points="156.6048,741.0213 149.2402,741.0213 152.9225,747.3992"/>
    <polygon points="155.1767,741.5882 155.6229,741.5882 152.9225,746.2654 152.6994,745.8789"/>
    <polygon points="152.0448,745.8789 154.8494,741.0213 156.6048,741.0213 152.9225,747.3992"/>
    <polyline points="164.5423,760.4386 144.948,760.4386 144.2934,761.5725 163.8876,761.5725 163.233,762.7063 143.6388,762.7063 142.9841,763.8402 162.5784,763.8402 161.9237,764.974 142.3295,764.974 141.6749,766.1079 161.2691,766.1079 160.6145,767.2417 141.0202,767.2417 140.3656,768.3756 159.9598,768.3756 159.3052,769.5095 139.711,769.5095 139.0563,770.6433 158.6506,770.6433 157.9959,771.7772 138.4017,771.7772 137.7471,772.911 157.3413,772.911 156.6867,774.0449 137.0924,774.0449 136.4378,775.1788 156.032,775.1788 155.3774,776.3126 135.7832,776.3126 135.1285,777.4465 154.7228,777.4465 154.0681,778.5803 134.4739,778.5803 133.8193,779.7142 153.4135,779.7142 152.7589,780.848 133.1646,780.848 132.51,781.9819 152.1042,781.9819 151.4496,783.1158 131.8554,783.1158 131.2007,784.2496 150.795,784.2496 150.1403,785.3835 130.5461,785.3835 129.8915,786.5173 149.4857,786.5173 148.8311,787.6512 129.2368,787.6512 128.5822,788.7851 148.1764,788.7851 147.5218,789.9189 127.9276,789.9189 127.2729,791.0528 146.8672,791.0528 146.2125,792.1866 126.6183,792.1866 125.9637,793.3205 145.5579,793.3205 144.9033,794.4543 125.309,794.4543 124.6544,795.5882 144.2486,795.5882 143.594,796.7221 123.9998,796.7221 123.3451,797.8559 142.9394,797.8559 142.2847,798.9898 122.6905,798.9898 123.3004,800.1236 141.6301,800.1236 140.9755,801.2575 123.955,801.2575 124.6096,802.3914 140.3208,802.3914 139.6662,803.5252 125.2643,803.5252 125.9189,804.6591 139.0116,804.6591 138.3569,805.7929 126.5735,805.7929 127.2282,806.9268 137.7023,806.9268 137.0477,808.0606 127.8828,808.0606 128.5374,809.1945 136.393,809.1945 135.7384,810.3284 129.1921,810.3284 129.8467,811.4622 135.0838,811.4622 134.4291,812.5961 130.5013,812.5961 131.156,813.7299 133.7745,813.7299 133.1199,814.8638 131.8106,814.8638"/>
    <polygon points="132.4652,817.1315 122.0135,799.0285 144.948,759.3047 165.8515,759.3047"/>
    <polygon points="132.4652,818.2654 166.8335,758.7378 98.097,758.7378 105.0525,770.7851"/>
    <polygon points="149.2402,811.8874 152.9225,818.2654 156.6048,811.8874 149.2402,811.8874 156.6048,811.8874 152.9225,818.2654"/>
    <polyline points="152.5543,815.3599 153.2908,815.3599 153.9454,814.226 151.8997,814.226 151.245,813.0921 154.6,813.0921"/>
    <polygon points="152.9225,817.1315 150.2222,812.4543 155.6229,812.4543"/>
    <polygon points="173.3798,818.2654 187.2908,794.1709 173.3798,794.1709 187.2908,794.1709 173.3798,818.2654 159.4689,794.1709 173.3798,794.1709 159.4689,794.1709"/>
    <polyline points="173.9526,815.0055 172.807,815.0055 172.1524,813.8717 174.6073,813.8717 175.2619,812.7378 171.4978,812.7378 170.8431,811.604 175.9165,811.604 176.5712,810.4701 170.1885,810.4701 169.5339,809.3362 177.2258,809.3362 177.8804,808.2024 168.8792,808.2024 168.2246,807.0685 178.5351,807.0685 179.1897,805.9347 167.57,805.9347 166.9153,804.8008 179.8443,804.8008 180.499,803.6669 166.2607,803.6669 165.6061,802.5331 181.1536,802.5331 181.8082,801.3992 164.9514,801.3992 164.2968,800.2654 182.4629,800.2654 183.1175,799.1315 163.6422,799.1315 162.9875,797.9977 183.7721,797.9977 184.4268,796.8638 162.3329,796.8638 161.6783,795.7299 185.0814,795.7299"/>
    <polygon points="173.3798,782.8323 177.0621,776.4543 169.6975,776.4543 177.0621,776.4543 173.3798,782.8323 169.6975,776.4543"/>
    <polygon points="173.3798,781.6984 170.6795,777.0213 176.0802,777.0213"/>
    <polyline points="173.0116,779.9268 173.7481,779.9268 174.4027,778.7929 172.357,778.7929 171.7023,777.6591 175.0573,777.6591"/>
    <polygon points="166.8335,758.7378 132.4652,818.2654 121.3588,799.0285 144.6207,758.7378"/>
    <polygon points="132.4652,747.3992 146.3762,723.3047 118.5543,723.3047 125.5098,735.352"/>
    <polygon points="115.6903,741.0213 108.3256,741.0213 112.0079,747.3992"/>
    <polygon points="136.1476,705.5882 128.7829,705.5882 132.4652,711.9662"/>
    <polygon points="91.5507,782.8323 95.233,776.4543 87.8683,776.4543"/>
    <polygon points="84.5952,806.2181 91.5507,818.2654 105.4616,794.1709 77.6397,794.1709"/>
    <polygon points="67.411,811.8874 71.0934,818.2654 74.7757,811.8874"/>
    <polygon points="108.3256,811.8874 112.0079,818.2654 115.6903,811.8874"/>
    <polygon points="113.9348,811.8874 115.6903,811.8874 112.0079,818.2654 111.1302,816.7451"/>
    <polygon points="114.7083,812.4543 112.0079,817.1315 111.7848,816.7451 114.2621,812.4543"/>
    <polyline points="104.3594,830.7402 236.1616,830.7402 236.8163,831.874 103.7048,831.874 103.0501,833.0079 237.4709,833.0079 238.1255,834.1417 102.3955,834.1417 101.7409,835.2756 238.7802,835.2756 239.4348,836.4094 101.0862,836.4094 100.4316,837.5433 240.0894,837.5433 240.7441,838.6772 99.777,838.6772 99.1223,839.811 241.3987,839.811 242.0533,840.9449 98.4677,840.9449 97.8131,842.0787 242.708,842.0787 243.3626,843.2126 97.1584,843.2126 96.5038,844.3465 244.0172,844.3465 244.6719,845.4803 95.8492,845.4803 95.1945,846.6142 245.3265,846.6142 245.9811,847.748 94.5399,847.748 93.8853,848.8819 246.6358,848.8819 247.2904,850.0157 93.2306,850.0157 92.576,851.1496 247.945,851.1496 248.5997,852.2835 91.9214,852.2835 91.2667,853.4173 249.2543,853.4173 249.9089,854.5512 90.6121,854.5512 89.9575,855.685 250.5636,855.685 251.2182,856.8189 89.3028,856.8189 88.6482,857.9528 742.8479,857.9528 742.1932,856.8189 580.2779,856.8189 580.9325,855.685 741.5386,855.685 740.884,854.5512 581.5871,854.5512 582.2418,853.4173 740.2293,853.4173 739.5747,852.2835 582.8964,852.2835 583.551,851.1496 738.9201,851.1496 738.2654,850.0157 584.2057,850.0157 584.8603,848.8819 737.6108,848.8819 736.9562,847.748 585.5149,847.748 586.1696,846.6142 736.3015,846.6142 735.6469,845.4803 586.8242,845.4803 587.4788,844.3465 734.9923,844.3465 734.3376,843.2126 588.1335,843.2126 588.7881,842.0787 733.683,842.0787 733.0284,840.9449 589.4427,840.9449 590.0974,839.811 732.3737,839.811 731.7191,838.6772 590.752,838.6772 591.4066,837.5433 731.0645,837.5433 730.4098,836.4094 592.0613,836.4094 592.7159,835.2756 729.7552,835.2756 729.1006,834.1417 593.3705,834.1417 594.0252,833.0079 728.4459,833.0079 727.7913,831.874 594.6798,831.874 595.3344,830.7402 727.1367,830.7402 726.482,829.6063 708.4063,829.6063 709.4087,828.4724 725.8274,828.4724 725.1728,827.3386 709.9391,827.3386 710.1689,826.2047 724.5181,826.2047 723.8635,825.0709 710.121,825.0709 709.8019,823.937 723.2089,823.937 722.5542,822.8031 709.1986,822.8031 708.544,821.6693 721.8996,821.6693 721.245,820.5354 707.8893,820.5354 707.2347,819.4016 720.5903,819.4016 719.9357,818.2677 706.5801,818.2677 705.9254,817.1339 719.2811,817.1339 718.6264,816.0 705.2708,816.0 704.6162,814.8661 717.9718,814.8661 717.3172,813.7323 703.9615,813.7323 703.3069,812.5984 716.6625,812.5984 716.0079,811.4646 702.6523,811.4646 701.9976,810.3307 715.3533,810.3307 714.6986,809.1969 701.343,809.1969 700.6884,808.063 714.044,808.063 713.3894,806.9291 700.0337,806.9291 699.3791,805.7953 712.7347,805.7953 712.0801,804.6614 698.7245,804.6614 698.0698,803.5276 711.4255,803.5276 710.7708,802.3937 697.4152,802.3937 696.7606,801.2598 710.1162,801.2598 709.4616,800.126 696.1059,800.126 695.4513,798.9921 708.8069,798.9921 708.1523,797.8583 694.7967,797.8583 694.142,796.7244 707.4977,796.7244 706.843,795.5906 693.4874,795.5906 692.8328,794.4567 706.1884,794.4567 705.5338,793.3228 692.1781,793.3228 691.5235,792.189 704.8791,792.189 704.2245,791.0551 690.8689,791.0551 690.2142,789.9213 703.5699,789.9213 702.9152,788.7874 689.5596,788.7874 688.905,787.6535 702.2606,787.6535 701.606,786.5197 688.2503,786.5197 687.5957,785.3858 700.9513,785.3858 700.2967,784.252 686.9411,784.252 686.2864,783.1181 699.6421,783.1181 698.9874,781.9843 685.6318,781.9843 684.9772,780.8504 698.3328,780.8504 697.6782,779.7165 684.3225,779.7165 683.6679,778.5827 697.0235,778.5827 696.3689,777.4488 683.0133,777.4488 682.3586,776.315 695.7143,776.315 695.0596,775.1811 681.704,775.1811 681.0494,774.0472 694.405,774.0472 693.7504,772.9134 680.3947,772.9134 679.7401,771.7795 693.0957,771.7795 692.4411,770.6457 679.0855,770.6457 678.4308,769.5118 691.7865,769.5118 691.1318,768.378 677.7762,768.378 677.1216,767.2441 690.4772,767.2441 689.8226,766.1102 676.4669,766.1102 675.8123,764.9764 689.1679,764.9764 688.5133,763.8425 675.1577,763.8425 674.503,762.7087 687.8587,762.7087 687.204,761.5748 673.8484,761.5748 673.1938,760.4409 686.5494,760.4409 685.8948,759.3071 672.5391,759.3071 671.8845,758.1732 685.2401,758.1732 684.5855,757.0394 671.2299,757.0394 670.5752,755.9055 683.9309,755.9055 683.2762,754.7717 669.9206,754.7717 669.266,753.6378 682.6216,753.6378 681.967,752.5039 668.6113,752.5039 667.9567,751.3701 681.3123,751.3701 680.6577,750.2362 667.3021,750.2362 666.6474,749.1024 680.0031,749.1024 679.3484,747.9685 665.9928,747.9685 665.3382,746.8346 678.6938,746.8346 678.0392,745.7008 664.6835,745.7008 664.0289,744.5669 677.3845,744.5669 676.7299,743.4331 663.3743,743.4331 662.7196,742.2992 676.0753,742.2992 675.4206,741.1654 662.065,741.1654 661.4104,740.0315 674.766,740.0315 674.1114,738.8976 660.7557,738.8976 660.1011,737.7638 673.4567,737.7638 672.8021,736.6299 659.4465,736.6299 658.7918,735.4961 672.1475,735.4961 671.4928,734.3622 658.1372,734.3622 657.4826,733.2283 670.8382,733.2283 670.1836,732.0945 656.8279,732.0945 656.1733,730.9606 669.5289,730.9606 668.8743,729.8268 655.5187,729.8268 654.864,728.6929 668.2197,728.6929 667.565,727.5591 654.9061,727.5591 656.2153,725.2913 666.2558,725.2913 666.9104,726.4252 655.5607,726.4252 652.2455,724.1575 665.6011,724.1575 664.9465,723.0236 651.5909,723.0236 650.9362,721.8898 664.2919,721.8898 663.6372,720.7559 650.2816,720.7559 649.627,719.622 662.9826,719.622 662.328,718.4882 648.9723,718.4882 648.3177,717.3543 661.6733,717.3543 661.0187,716.2205 647.6631,716.2205 647.0084,715.0866 660.3641,715.0866 659.7094,713.9528 646.3538,713.9528 645.6992,712.8189 659.0548,712.8189 658.4002,711.685 645.0445,711.685 644.3899,710.5512 657.7455,710.5512 657.0909,709.4173 643.7353,709.4173 643.0806,708.2835 656.4363,708.2835 655.7816,707.1496 642.426,707.1496 641.7714,706.0157 655.127,706.0157 654.4724,704.8819 641.1167,704.8819 640.4621,703.748 653.8177,703.748 653.1631,702.6142 639.8075,702.6142 639.1528,701.4803 652.5085,701.4803 651.8538,700.3465 638.4982,700.3465 637.8436,699.2126 651.1992,699.2126 650.5446,698.0787 637.1889,698.0787 636.5343,696.9449 649.8899,696.9449 649.2353,695.811 635.8797,695.811 635.225,694.6772 648.5807,694.6772 647.926,693.5433 634.5704,693.5433 633.9158,692.4094 647.2714,692.4094 646.6168,691.2756 633.2611,691.2756 632.6065,690.1417 645.9621,690.1417 645.3075,689.0079 631.9519,689.0079 631.2972,687.874 644.6529,687.874 643.9982,686.7402 630.6426,686.7402 629.988,685.6063 643.3436,685.6063 642.689,684.4724 629.3333,684.4724 628.6787,683.3386 642.0343,683.3386 641.3797,682.2047 628.0241,682.2047 627.3694,681.0709 640.7251,681.0709 640.0704,679.937 626.7148,679.937 626.0602,678.8031 639.4158,678.8031 638.7612,677.6693 625.4055,677.6693 624.7509,676.5354 638.1065,676.5354 637.4519,675.4016 624.0963,675.4016 623.4416,674.2677 636.7973,674.2677 636.1426,673.1339 622.787,673.1339 622.1324,672.0 635.488,672.0 634.8334,670.8661 621.4777,670.8661 620.8231,669.7323 634.1787,669.7323 633.5241,668.5984 620.1685,668.5984 619.5138,667.4646 632.8695,667.4646 632.2148,666.3307 618.8592,666.3307 618.2046,665.1969 631.5602,665.1969 630.9056,664.063 617.5499,664.063 616.8953,662.9291 630.2509,662.9291 629.5963,661.7953 616.2407,661.7953 615.586,660.6614 628.9417,660.6614 628.287,659.5276 614.9314,659.5276 614.2768,658.3937 627.6324,658.3937 626.9778,657.2598 613.6221,657.2598 612.9675,656.126 626.3231,656.126 625.6685,654.9921 612.3129,654.9921 611.6582,653.8583 625.0139,653.8583 624.3592,652.7244 611.0036,652.7244 610.349,651.5906 623.7046,651.5906 623.05,650.4567 609.6943,650.4567 609.0397,649.3228 622.3953,649.3228 621.7407,648.189 608.3851,648.189 607.7304,647.0551 621.0861,647.0551 620.4314,645.9213 607.0758,645.9213 606.4212,644.7874 619.7768,644.7874 619.1222,643.6535 605.7665,643.6535 605.1119,642.5197 618.4675,642.5197 617.8129,641.3858 604.4573,641.3858 603.8026,640.252 617.1583,640.252 616.5036,639.1181 603.148,639.1181 602.4934,637.9843 615.849,637.9843 615.1944,636.8504 601.8387,636.8504 601.1841,635.7165 614.5397,635.7165 613.8851,634.5827 600.5295,634.5827 599.8748,633.4488 613.2305,633.4488 612.5758,632.315 599.2202,632.315 598.5656,631.1811 611.9212,631.1811 611.2666,630.0472 597.9109,630.0472 597.2563,628.9134 610.6119,628.9134 609.9573,627.7795 596.6017,627.7795 595.947,626.6457 609.3027,626.6457 608.648,625.5118 595.2924,625.5118 594.6378,624.378 607.9934,624.378 607.3388,623.2441 593.9831,623.2441 593.3285,622.1102 606.6841,622.1102 606.0295,620.9764 592.6739,620.9764 592.0192,619.8425 605.3749,619.8425 604.7202,618.7087 591.3646,618.7087 590.71,617.5748 604.0656,617.5748 603.411,616.4409 590.0553,616.4409 589.4007,615.3071 602.7563,615.3071 602.1017,614.1732 588.7461,614.1732 588.0914,613.0394 601.4471,613.0394 600.7924,611.9055 587.4368,611.9055 586.7822,610.7717 600.1378,610.7717 599.4832,609.6378 586.1275,609.6378 585.4729,608.5039 598.8285,608.5039 598.1739,607.3701 584.8183,607.3701 584.1636,606.2362 597.5193,606.2362 596.8646,605.1024 583.509,605.1024 582.8544,603.9685 596.21,603.9685 595.5554,602.8346 582.1997,602.8346 581.5451,601.7008 594.9007,601.7008 594.2461,600.5669 580.8905,600.5669 580.2358,599.4331 593.5915,599.4331 592.9368,598.2992 579.5812,598.2992 578.9266,597.1654 592.2822,597.1654 591.6276,596.0315 578.2719,596.0315 577.6173,594.8976 590.9729,594.8976 590.3183,593.7638 576.9627,593.7638 576.308,592.6299 589.6637,592.6299 589.009,591.4961 575.6534,591.4961 574.9988,590.3622 588.3544,590.3622 587.6998,589.2283 574.3441,589.2283 573.6895,588.0945 587.0451,588.0945 586.3905,586.9606 573.0349,586.9606 573.0769,585.8268 585.7359,585.8268 585.0812,584.6929 573.7315,584.6929 570.4163,582.4252 583.772,582.4252 583.1173,581.2913 569.7617,581.2913 569.1071,580.1575 582.4627,580.1575 581.8081,579.0236 568.4524,579.0236 567.7978,577.8898 581.1534,577.8898 580.4988,576.7559 567.1432,576.7559 566.4885,575.622 579.8442,575.622 579.1895,574.4882 565.8339,574.4882 565.1793,573.3543 578.5349,573.3543 577.8803,572.2205 564.5246,572.2205 563.87,571.0866 577.2256,571.0866 576.571,569.9528 563.2154,569.9528 562.5607,568.8189 575.9164,568.8189 575.2617,567.685 561.9061,567.685 561.2515,566.5512 574.6071,566.5512 573.9525,565.4173 560.5968,565.4173 559.9422,564.2835 573.2978,564.2835 572.6432,563.1496 559.2876,563.1496 558.6329,562.0157 571.9886,562.0157 571.3339,560.8819 557.9783,560.8819 557.3237,559.748 570.6793,559.748 570.0247,558.6142 556.669,558.6142 556.0144,557.4803 569.37,557.4803 568.7154,556.3465 555.3598,556.3465 554.7051,555.2126 568.0608,555.2126 567.4061,554.0787 554.0505,554.0787 553.3959,552.9449 566.7515,552.9449 566.0969,551.811 552.7412,551.811 552.0866,550.6772 565.4422,550.6772 564.7876,549.5433 551.432,549.5433 550.7773,548.4094 564.133,548.4094 563.4783,547.2756 550.1227,547.2756 549.4681,546.1417 562.8237,546.1417 562.1691,545.0079 548.8134,545.0079 548.1588,543.874 561.5144,543.874 560.8598,542.7402 547.5042,542.7402 546.8495,541.6063 560.2052,541.6063 559.5505,540.4724 546.1949,540.4724 545.5403,539.3386 558.8959,539.3386 558.2413,538.2047 544.8856,538.2047 544.231,537.0709 557.5866,537.0709 556.932,535.937 543.5764,535.937 542.9217,534.8031 556.2774,534.8031 555.6227,533.6693 542.2671,533.6693 541.6125,532.5354 554.9681,532.5354 554.3135,531.4016 540.9578,531.4016 540.3032,530.2677 553.6588,530.2677 553.0042,529.1339 539.6486,529.1339 538.9939,528.0 552.3496,528.0 551.6949,526.8661 538.3393,526.8661 537.6847,525.7323 551.0403,525.7323 550.3857,524.5984 537.03,524.5984 536.3754,523.4646 549.731,523.4646 549.0764,522.3307 535.7208,522.3307 535.0661,521.1969 548.4218,521.1969 547.7671,520.063 534.4115,520.063 533.7569,518.9291 547.1125,518.9291 546.4579,517.7953 533.1022,517.7953 532.4476,516.6614 545.8032,516.6614 545.1486,515.5276 531.793,515.5276 531.1383,514.3937 544.494,514.3937 543.8393,513.2598 530.4837,513.2598 529.8291,512.126 543.1847,512.126 542.5301,510.9921 529.1744,510.9921 528.5198,509.8583 541.8754,509.8583 541.2208,508.7244 527.8652,508.7244 527.2105,507.5906 540.5662,507.5906 539.9115,506.4567 526.5559,506.4567 525.9013,505.3228 539.2569,505.3228 538.6023,504.189 525.2466,504.189 524.592,503.0551 537.9476,503.0551 537.293,501.9213 523.9374,501.9213 523.2827,500.7874 536.6384,500.7874 535.9837,499.6535 522.6281,499.6535 521.9735,498.5197 535.3291,498.5197 534.6745,497.3858 521.3188,497.3858 520.6642,496.252 534.0198,496.252 533.3652,495.1181 520.0096,495.1181 519.3549,493.9843 532.7106,493.9843 532.0559,492.8504 518.7003,492.8504 518.0457,491.7165 531.4013,491.7165 530.7467,490.5827 517.391,490.5827 516.7364,489.4488 530.092,489.4488 529.4374,488.315 516.0818,488.315 515.4271,487.1811 528.7828,487.1811 528.1281,486.0472 514.7725,486.0472 514.1179,484.9134 527.4735,484.9134 526.8189,483.7795 513.4632,483.7795 512.8086,482.6457 526.1642,482.6457 525.5096,481.5118 512.154,481.5118 511.4993,480.378 524.855,480.378 524.2003,479.2441 510.8447,479.2441 510.1901,478.1102 523.5457,478.1102 522.8911,476.9764 509.5354,476.9764 508.8808,475.8425 522.2364,475.8425 521.5818,474.7087 508.2262,474.7087 507.5715,473.5748 520.9272,473.5748 520.2725,472.4409 506.9169,472.4409 506.2623,471.3071 519.6179,471.3071 518.9633,470.1732 505.6076,470.1732 504.953,469.0394 518.3086,469.0394 517.654,467.9055 504.2984,467.9055 503.6437,466.7717 516.9993,466.7717 516.3447,465.6378 502.9891,465.6378 502.3345,464.5039 515.6901,464.5039 515.0354,463.3701 501.6798,463.3701 501.0252,462.2362 514.3808,462.2362 513.7262,461.1024 500.3706,461.1024 499.7159,459.9685 513.0715,459.9685 512.4169,458.8346 499.0613,458.8346 498.4067,457.7008 511.7623,457.7008 511.1076,456.5669 497.752,456.5669 497.0974,455.4331 510.453,455.4331 509.7984,454.2992 496.4428,454.2992 495.7881,453.1654 509.1437,453.1654 508.4891,452.0315 495.1335,452.0315 494.4789,450.8976 507.8345,450.8976 507.1798,449.7638 493.8242,449.7638 493.1696,448.6299 506.5252,448.6299 505.8706,447.4961 492.515,447.4961 491.8603,446.3622 505.2159,446.3622 504.5613,445.2283 491.2057,445.2283 491.2477,444.0945 503.9067,444.0945 503.252,442.9606 491.9024,442.9606 492.557,441.8268 502.5974,441.8268 501.9428,440.6929 488.5872,440.6929 487.9325,439.5591 501.2881,439.5591 500.6335,438.4252 487.2779,438.4252 486.6233,437.2913 499.9789,437.2913 499.3242,436.1575 485.9686,436.1575 485.314,435.0236 498.6696,435.0236 498.015,433.8898 484.6594,433.8898 484.0047,432.7559 497.3603,432.7559 496.7057,431.622 483.3501,431.622 482.6955,430.4882 496.0511,430.4882 495.3964,429.3543 482.0408,429.3543 481.3862,428.2205 494.7418,428.2205 494.0872,427.0866 480.7316,427.0866 480.0769,425.9528 493.4325,425.9528 492.7779,424.8189 479.4223,424.8189 478.7677,423.685 492.1233,423.685 491.4686,422.5512 478.113,422.5512 477.4584,421.4173 490.814,421.4173 490.1594,420.2835 476.8038,420.2835 476.1491,419.1496 489.5047,419.1496 488.8501,418.0157 475.4945,418.0157 474.8399,416.8819 488.1955,416.8819 487.5408,415.748 474.1852,415.748 473.5306,414.6142 486.8862,414.6142 486.2316,413.4803 472.876,413.4803 472.2213,412.3465 485.5769,412.3465 484.9223,411.2126 471.5667,411.2126 470.9121,410.0787 484.2677,410.0787 483.613,408.9449 470.2574,408.9449 469.6028,407.811 482.9584,407.811 482.3038,406.6772 468.9482,406.6772 468.2935,405.5433 481.6491,405.5433 480.9945,404.4094 467.6389,404.4094 466.9843,403.2756 480.3399,403.2756 479.6852,402.1417 466.3296,402.1417 465.675,401.0079 479.0306,401.0079 478.376,399.874 465.0204,399.874 464.3657,398.7402 477.7213,398.7402 477.0667,397.6063 463.7111,397.6063 463.0565,396.4724 476.4121,396.4724 475.7574,395.3386 462.4018,395.3386 461.7472,394.2047 475.1028,394.2047 474.4482,393.0709 461.0926,393.0709 460.4379,391.937 473.7935,391.937 473.1389,390.8031 459.7833,390.8031 459.1287,389.6693 472.4843,389.6693 471.8296,388.5354 458.474,388.5354 457.8194,387.4016 471.175,387.4016 470.5204,386.2677 457.1648,386.2677 456.5101,385.1339 469.8657,385.1339 469.2111,384.0 455.8555,384.0 455.2009,382.8661 468.5565,382.8661 467.9018,381.7323 454.5462,381.7323 453.8916,380.5984 467.2472,380.5984 466.5926,379.4646 453.237,379.4646 452.5823,378.3307 465.9379,378.3307 465.2833,377.1969 451.9277,377.1969 451.2731,376.063 464.6287,376.063 463.974,374.9291 450.6184,374.9291 449.9638,373.7953 463.3194,373.7953 462.6648,372.6614 449.3092,372.6614 448.6545,371.5276 462.0101,371.5276 461.3555,370.3937 447.9999,370.3937 447.3453,369.2598 460.7009,369.2598 460.0462,368.126 446.6906,368.126 446.036,366.9921 459.3916,366.9921 458.737,365.8583 445.3813,365.8583 444.7267,364.7244 458.0823,364.7244 457.4277,363.5906 444.0721,363.5906 443.4174,362.4567 456.7731,362.4567 456.1184,361.3228 442.7628,361.3228 442.1082,360.189 455.4638,360.189 454.8092,359.0551 441.4535,359.0551 440.7989,357.9213 454.1545,357.9213 453.4999,356.7874 440.1443,356.7874 439.4896,355.6535 452.8453,355.6535 452.1906,354.5197 438.835,354.5197 438.1804,353.3858 451.536,353.3858 450.8814,352.252 437.5257,352.252 436.8711,351.1181 450.2267,351.1181 449.5721,349.9843 436.2165,349.9843 435.5618,348.8504 448.9175,348.8504 448.2628,347.7165 434.9072,347.7165 434.2526,346.5827 447.6082,346.5827 446.9536,345.4488 433.5979,345.4488 432.9433,344.315 446.2989,344.315 445.6443,343.1811 432.2887,343.1811 431.634,342.0472 444.9897,342.0472 444.335,340.9134 430.9794,340.9134 430.3248,339.7795 443.6804,339.7795 443.0258,338.6457 429.6701,338.6457 429.0155,337.5118 442.3711,337.5118 441.7165,336.378 428.3609,336.378 427.7062,335.2441 441.0619,335.2441 440.4072,334.1102 427.0516,334.1102 426.397,332.9764 439.7526,332.9764 439.098,331.8425 425.7423,331.8425 425.0877,330.7087 438.4433,330.7087 437.7887,329.5748 424.4331,329.5748 423.7784,328.4409 437.1341,328.4409 436.4794,327.3071 423.1238,327.3071 422.4692,326.1732 435.8248,326.1732 435.1702,325.0394 421.8145,325.0394 421.1599,323.9055 434.5155,323.9055 433.8609,322.7717 420.5053,322.7717 419.8506,321.6378 433.2063,321.6378 432.5516,320.5039 419.196,320.5039 418.5414,319.3701 431.897,319.3701 431.2424,318.2362 417.8867,318.2362 417.2321,317.1024 430.5877,317.1024 429.9331,315.9685 416.5775,315.9685 415.9228,314.8346 429.2785,314.8346 428.6238,313.7008 415.2682,313.7008 414.6136,312.5669 427.9692,312.5669 427.3146,311.4331 413.9589,311.4331 413.3043,310.2992 426.6599,310.2992 426.0053,309.1654 412.6497,309.1654 411.995,308.0315 425.3507,308.0315 424.696,306.8976 411.3404,306.8976 410.6858,305.7638 424.0414,305.7638 423.3868,304.6299 410.0311,304.6299 409.3765,303.4961 422.7321,303.4961 422.0775,302.3622 409.4186,302.3622 410.0732,301.2283 421.4229,301.2283 420.7682,300.0945 410.7278,300.0945 411.3825,298.9606 420.1136,298.9606 419.459,297.8268 412.0371,297.8268 412.6917,296.6929 418.8043,296.6929 418.1497,295.5591 413.3464,295.5591 414.3858,294.4252 417.1102,294.4252"/>
    <polygon points="431.7964,369.541 418.8673,391.9347 405.9383,369.541"/>
    <polygon points="329.5099,475.8402 296.1236,533.6669 285.6718,515.564 308.6064,475.8402"/>
    <polygon points="333.3559,492.9898 337.0382,499.3677 340.7205,492.9898 333.3559,492.9898 340.7205,492.9898 337.0382,499.3677"/>
    <polygon points="334.3378,493.5567 339.7385,493.5567 337.0382,498.2339"/>
    <polyline points="336.6699,496.4622 337.4064,496.4622 338.061,495.3284 336.0153,495.3284 335.3607,494.1945 338.7157,494.1945"/>
    <polygon points="350.9491,510.7063 337.0382,510.7063 350.9491,510.7063 337.0382,534.8008 323.1272,510.7063 337.0382,510.7063 323.1272,510.7063 337.0382,534.8008"/>
    <polyline points="348.7397,512.2654 325.3366,512.2654 325.9912,513.3992 348.0851,513.3992 347.4305,514.5331 326.6459,514.5331 327.3005,515.6669 346.7758,515.6669 346.1212,516.8008 327.9551,516.8008 328.6098,517.9347 345.4666,517.9347 344.8119,519.0685 329.2644,519.0685 329.919,520.2024 344.1573,520.2024 343.5027,521.3362 330.5737,521.3362 331.2283,522.4701 342.848,522.4701 342.1934,523.604 331.8829,523.604 332.5376,524.7378 341.5388,524.7378 340.8841,525.8717 333.1922,525.8717 333.8468,527.0055 340.2295,527.0055 339.5749,528.1394 334.5015,528.1394 335.1561,529.2732 338.9202,529.2732 338.2656,530.4071 335.8107,530.4071 336.4654,531.541 337.611,531.541"/>
    <polyline points="318.2584,529.6276 314.9034,529.6276 315.558,530.7614 317.6037,530.7614 316.9491,531.8953 316.2126,531.8953"/>
    <polygon points="316.5809,533.6669 313.8805,528.9898 319.2812,528.9898"/>
    <polygon points="316.5809,534.8008 312.8986,528.4228 316.5809,534.8008 320.2632,528.4228 312.8986,528.4228 320.2632,528.4228"/>
    <polygon points="324.1092,511.2732 349.9672,511.2732 337.0382,533.6669"/>
    <polyline points="357.1272,531.8953 357.8637,531.8953 358.5183,530.7614 356.4726,530.7614 355.818,529.6276 359.173,529.6276"/>
    <polygon points="357.4955,533.6669 354.7951,528.9898 360.1958,528.9898"/>
    <polygon points="357.4955,534.8008 353.8132,528.4228 357.4955,534.8008 361.1778,528.4228 353.8132,528.4228 361.1778,528.4228"/>
    <polygon points="398.41,534.8008 402.0924,528.4228 394.7277,528.4228"/>
    <polygon points="527.7001,581.5725 541.6111,605.6669 555.5221,581.5725"/>
    <polygon points="500.6965,641.1 504.3788,634.7221 497.0142,634.7221"/>
    <polygon points="486.7856,652.4386 500.6965,676.5331 514.6075,652.4386"/>
    <polygon points="480.2392,676.5331 483.9215,670.1551 476.5569,670.1551"/>
    <polygon points="466.3283,687.8717 541.6111,818.2654 616.8939,687.8717"/>
    <polygon points="459.7819,711.9662 463.4642,705.5882 456.0996,705.5882"/>
    <polygon points="504.1235,725.6669 549.5982,804.4313 541.6111,818.2654 489.5901,728.1624 512.852,687.8717 616.8939,687.8717 595.0728,725.6669"/>
    <polygon points="520.9307,675.0128 523.4079,670.7221 523.8542,670.7221 521.1538,675.3992"/>
    <polygon points="523.0806,670.1551 524.8361,670.1551 521.1538,676.5331 520.2761,675.0128"/>
    <polygon points="517.4715,670.1551 521.1538,676.5331 524.8361,670.1551"/>
    <polygon points="600.2826,670.7221 605.6833,670.7221 602.983,675.3992"/>
    <polyline points="602.6147,673.6276 603.3512,673.6276 604.0058,672.4937 601.9601,672.4937 601.3055,671.3599 604.6605,671.3599"/>
    <polygon points="606.6653,670.1551 599.3007,670.1551 606.6653,670.1551 602.983,676.5331 599.3007,670.1551 602.983,676.5331"/>
    <polyline points="614.7664,689.289 513.343,689.289 512.6883,690.4228 614.1117,690.4228 613.4571,691.5567 512.0337,691.5567 511.3791,692.6906 612.8025,692.6906 612.1478,693.8244 510.7244,693.8244 510.0698,694.9583 611.4932,694.9583 610.8386,696.0921 509.4152,696.0921 508.7605,697.226 610.1839,697.226 609.5293,698.3599 508.1059,698.3599 507.4513,699.4937 608.8747,699.4937 608.22,700.6276 506.7966,700.6276 506.142,701.7614 607.5654,701.7614 606.9108,702.8953 505.4874,702.8953 504.8327,704.0291 606.2561,704.0291 605.6015,705.163 504.1781,705.163 503.5235,706.2969 604.9469,706.2969 604.2922,707.4307 502.8688,707.4307 502.2142,708.5646 603.6376,708.5646 602.983,709.6984 501.5596,709.6984 500.9049,710.8323 602.3283,710.8323 601.6737,711.9662 500.2503,711.9662 499.5957,713.1 601.0191,713.1 600.3644,714.2339 498.941,714.2339 498.2864,715.3677 599.7098,715.3677 599.0552,716.5016 497.6318,716.5016 496.9771,717.6354 598.4005,717.6354 597.7459,718.7693 496.3225,718.7693 495.6679,719.9032 597.0913,719.9032 596.4366,721.037 495.0132,721.037 494.3586,722.1709 595.782,722.1709 595.1274,723.3047 493.704,723.3047 493.0493,724.4386 594.4727,724.4386"/>
    <polygon points="609.5293,723.3047 616.4848,735.352 623.4403,747.3992 637.3512,723.3047"/>
    <polygon points="610.5113,723.8717 636.3693,723.8717 635.6601,725.1 611.2204,725.1"/>
    <line x1="611.5205" x2="635.3601" y1="724.4858" y2="724.4858"/>
    <polygon points="635.9874,725.6669 610.8931,725.6669 609.5293,723.3047 637.3512,723.3047"/>
    <polygon points="645.8244,741.0213 647.5799,741.0213 643.8976,747.3992 643.0198,745.8789"/>
    <polygon points="646.1517,741.5882 646.5979,741.5882 643.8976,746.2654 643.6745,745.8789"/>
    <polygon points="643.8976,747.3992 647.5799,741.0213 640.2153,741.0213"/>
    <polyline points="655.5173,760.4386 635.9231,760.4386 635.2684,761.5725 654.8627,761.5725 654.208,762.7063 634.6138,762.7063 633.9592,763.8402 653.5534,763.8402 652.8988,764.974 633.3045,764.974 632.6499,766.1079 652.2441,766.1079 651.5895,767.2417 631.9953,767.2417 631.3406,768.3756 650.9349,768.3756 650.2802,769.5095 630.686,769.5095 630.0314,770.6433 649.6256,770.6433 648.971,771.7772 629.3767,771.7772 628.7221,772.911 648.3163,772.911 647.6617,774.0449 628.0675,774.0449 627.4128,775.1788 647.0071,775.1788 646.3524,776.3126 626.7582,776.3126 626.1036,777.4465 645.6978,777.4465 645.0432,778.5803 625.4489,778.5803 624.7943,779.7142 644.3885,779.7142 643.7339,780.848 624.1397,780.848 623.485,781.9819 643.0793,781.9819 642.4246,783.1158 622.8304,783.1158 622.1758,784.2496 641.77,784.2496 641.1154,785.3835 621.5211,785.3835 620.8665,786.5173 640.4607,786.5173 639.8061,787.6512 620.2119,787.6512 619.5572,788.7851 639.1515,788.7851 638.4968,789.9189 618.9026,789.9189 618.248,791.0528 637.8422,791.0528 637.1876,792.1866 617.5933,792.1866 616.9387,793.3205 636.5329,793.3205 635.8783,794.4543 616.2841,794.4543 615.6294,795.5882 635.2237,795.5882 634.569,796.7221 614.9748,796.7221 614.3202,797.8559 633.9144,797.8559 633.2598,798.9898 613.6655,798.9898 614.2754,800.1236 632.6051,800.1236 631.9505,801.2575 614.93,801.2575 615.5847,802.3914 631.2959,802.3914 630.6412,803.5252 616.2393,803.5252 616.8939,804.6591 629.9866,804.6591 629.332,805.7929 617.5486,805.7929 618.2032,806.9268 628.6773,806.9268 628.0227,808.0606 618.8578,808.0606 619.5125,809.1945 627.3681,809.1945 626.7134,810.3284 620.1671,810.3284 620.8217,811.4622 626.0588,811.4622 625.4042,812.5961 621.4764,812.5961 622.131,813.7299 624.7495,813.7299 624.0949,814.8638 622.7856,814.8638"/>
    <polygon points="623.4403,817.1315 612.9885,799.0285 635.9231,759.3047 656.8266,759.3047"/>
    <polygon points="623.4403,818.2654 657.8085,758.7378 589.072,758.7378 596.0275,770.7851"/>
    <polygon points="640.2153,811.8874 647.5799,811.8874 643.8976,818.2654 640.2153,811.8874 643.8976,818.2654 647.5799,811.8874"/>
    <polyline points="643.5293,815.3599 644.2658,815.3599 644.9204,814.226 642.8747,814.226 642.2201,813.0921 645.5751,813.0921"/>
    <polygon points="646.5979,812.4543 643.8976,817.1315 641.1972,812.4543"/>
    <polygon points="664.3549,817.1315 651.4258,794.7378 677.2839,794.7378"/>
    <polyline points="664.9277,815.0055 663.7821,815.0055 663.1274,813.8717 665.5823,813.8717 666.2369,812.7378 662.4728,812.7378 661.8182,811.604 666.8916,811.604 667.5462,810.4701 661.1635,810.4701 660.5089,809.3362 668.2008,809.3362 668.8555,808.2024 659.8543,808.2024 659.1996,807.0685 669.5101,807.0685 670.1647,805.9347 658.545,805.9347 657.8904,804.8008 670.8194,804.8008 671.474,803.6669 657.2357,803.6669 656.5811,802.5331 672.1286,802.5331 672.7833,801.3992 655.9265,801.3992 655.2718,800.2654 673.4379,800.2654 674.0925,799.1315 654.6172,799.1315 653.9626,797.9977 674.7472,797.9977 675.4018,796.8638 653.3079,796.8638 652.6533,795.7299 676.0564,795.7299"/>
    <polyline points="663.9866,779.9268 664.7231,779.9268 665.3777,778.7929 663.332,778.7929 662.6774,777.6591 666.0324,777.6591"/>
    <polygon points="667.0552,777.0213 664.3549,781.6984 661.6545,777.0213"/>
    <polygon points="668.0372,776.4543 660.6725,776.4543 668.0372,776.4543 664.3549,782.8323 660.6725,776.4543 664.3549,782.8323"/>
    <polygon points="650.4439,794.1709 664.3549,818.2654 678.2658,794.1709 664.3549,818.2654 650.4439,794.1709 678.2658,794.1709"/>
    <polygon points="612.3339,799.0285 635.5957,758.7378 657.8085,758.7378 623.4403,818.2654"/>
    <polygon points="604.9098,811.8874 606.6653,811.8874 602.983,818.2654 602.1052,816.7451"/>
    <polygon points="602.983,817.1315 602.7599,816.7451 605.2371,812.4543 605.6833,812.4543"/>
    <polygon points="602.983,818.2654 606.6653,811.8874 599.3007,811.8874"/>
    <polygon points="596.4366,794.1709 568.6147,794.1709 575.5702,806.2181 582.5257,818.2654"/>
    <polygon points="578.8434,776.4543 582.5257,782.8323 586.208,776.4543"/>
    <polygon points="599.3007,741.0213 602.983,747.3992 606.6653,741.0213"/>
    <polyline points="623.072,709.0606 623.8085,709.0606 624.4631,707.9268 622.4174,707.9268 621.7628,706.7929 625.1178,706.7929"/>
    <polygon points="627.1226,705.5882 619.758,705.5882 627.1226,705.5882 623.4403,711.9662 619.758,705.5882 623.4403,711.9662"/>
    <polygon points="620.7399,706.1551 626.1406,706.1551 623.4403,710.8323"/>
    <polyline points="686.4896,813.0921 683.1347,813.0921 683.7893,814.226 685.835,814.226 685.1804,815.3599 684.4439,815.3599"/>
    <polygon points="684.8122,817.1315 682.1118,812.4543 687.5125,812.4543"/>
    <polygon points="688.4945,811.8874 684.8122,818.2654 681.1298,811.8874 684.8122,818.2654 688.4945,811.8874 681.1298,811.8874"/>
    <polyline points="743.5025,859.0866 87.9936,859.0866 87.3389,860.2205 744.1571,860.2205 744.8118,861.3543 86.6843,861.3543 86.0436,862.4882 745.4524,862.4882 745.7065,863.622 85.7896,863.622 86.0466,864.7559 745.4494,864.7559 744.4147,865.8898 87.0813,865.8898"/>
    <polygon points="86.1321,865.8624 85.4415,864.7931 85.2204,863.5396 85.5037,862.2987 104.0334,830.1709 236.4876,830.1709 252.0897,857.1945 267.6918,830.1709 400.1459,830.1709 415.748,857.1945 431.3501,830.1709 563.8043,830.1709 579.4064,857.1945 595.0085,830.1709 705.2836,830.1709 707.3485,829.6422 708.9212,828.183 709.6045,826.1493 709.5076,824.8571 709.0407,823.6634 653.9031,728.1624 655.6712,725.1 652.135,725.1 572.0739,586.4301 573.842,583.3677 570.3059,583.3677 490.2448,444.6978 492.0128,441.6354 488.4767,441.6354 408.4156,302.9655 413.1402,294.8156 414.3544,293.7967 415.9081,293.4827 417.4228,293.9499 418.5373,295.0965 745.8398,862.0012 746.2676,863.8597 745.9229,865.085 745.1293,866.0802 744.0114,866.6889 743.0506,866.8323 88.4455,866.8323 87.1837,866.5794"/>
    <polygon points="160.4508,794.7378 186.3088,794.7378 173.3798,817.1315"/>
    <polyline points="193.4689,815.3599 194.2054,815.3599 194.86,814.226 192.8143,814.226 192.1596,813.0921 195.5146,813.0921"/>
    <polygon points="197.5194,811.8874 190.1548,811.8874 197.5194,811.8874 193.8371,818.2654 190.1548,811.8874 193.8371,818.2654"/>
    <polygon points="193.8371,817.1315 191.1368,812.4543 196.5375,812.4543"/>
    <polygon points="258.8913,776.4543 251.5267,776.4543 255.209,782.8323"/>
    <polyline points="357.1272,815.3599 357.8637,815.3599 358.5183,814.226 356.4726,814.226 355.818,813.0921 359.173,813.0921"/>
    <polygon points="357.4955,817.1315 354.7951,812.4543 360.1958,812.4543"/>
    <polygon points="357.4955,818.2654 353.8132,811.8874 357.4955,818.2654 361.1778,811.8874 353.8132,811.8874 361.1778,811.8874"/>
    <polygon points="210.6121,563.8559 214.2944,570.2339 217.9767,563.8559"/>
    <polygon points="231.0694,528.4228 234.7517,534.8008 238.434,528.4228"/>
    <polygon points="241.298,510.7063 248.2535,522.7536 255.209,534.8008 269.12,510.7063"/>
    <polygon points="258.8913,492.9898 251.5267,492.9898 255.209,499.3677"/>
    <polygon points="268.7108,487.3205 296.1236,534.8008 330.4918,475.2732 261.7553,475.2732"/>
    <polygon points="279.3486,457.5567 271.984,457.5567 275.6663,463.9347"/>
    <polygon points="282.2126,439.8402 289.1681,451.8874 296.1236,463.9347 310.0345,439.8402"/>
    <polygon points="292.4413,422.1236 296.1236,428.5016 299.8059,422.1236"/>
  </g>
</svg>
